<?xml version="1.0" standalone="no"?>
<!DOCTYPE svg PUBLIC "-//W3C//DTD SVG 20010904//EN"
 "http://www.w3.org/TR/2001/REC-SVG-20010904/DTD/svg10.dtd">
<svg version="1.0" xmlns="http://www.w3.org/2000/svg"
 width="2250.000000pt" height="2250.000000pt" viewBox="0 0 2250.000000 2250.000000"
 preserveAspectRatio="xMidYMid meet">
<metadata>
Created by potrace 1.14, written by Peter Selinger 2001-2017
</metadata>
<g transform="translate(0.000000,2250.000000) scale(0.100000,-0.100000)"
fill="#000000" stroke="none">
<path d="M11198 16885 c-3 -6 -14 -49 -24 -95 -15 -74 -15 -94 -3 -169 11 -76
11 -88 -5 -130 -64 -163 -66 -190 -29 -300 16 -48 73 -151 84 -151 3 0 14 31
23 69 9 38 33 109 53 158 23 58 37 110 40 153 5 60 2 70 -31 130 -75 135 -88
171 -95 260 -3 47 -9 80 -13 75z m35 -226 c15 -30 40 -80 58 -111 46 -84 47
-118 9 -224 -18 -49 -43 -125 -56 -168 -14 -44 -26 -82 -29 -84 -3 -3 -22 31
-42 74 -54 112 -57 190 -13 293 31 73 32 75 25 191 -4 64 -4 132 1 151 l8 34
7 -51 c3 -29 18 -76 32 -105z"/>
<path d="M11560 16456 c-96 -25 -180 -103 -242 -223 -53 -100 -79 -194 -86
-308 l-6 -100 -12 85 c-17 114 -53 206 -120 307 -137 207 -326 264 -450 136
-34 -34 -49 -61 -65 -114 -12 -39 -18 -73 -14 -77 4 -4 10 -1 12 6 11 30 71
108 104 135 79 62 158 39 211 -62 48 -91 38 -143 -50 -250 -64 -79 -85 -131
-80 -200 5 -69 31 -124 81 -174 94 -94 226 -100 304 -16 31 34 65 114 72 173
l7 51 21 -70 c24 -76 74 -145 125 -171 74 -39 183 -11 248 62 67 77 90 164 66
249 -14 46 -30 70 -90 133 -89 94 -96 107 -96 174 1 72 40 146 93 172 34 16
44 17 79 7 45 -14 131 -89 155 -136 9 -16 18 -24 20 -18 9 25 -29 113 -67 156
-63 71 -138 96 -220 73z m138 -25 c44 -23 83 -63 107 -110 l17 -33 -36 36
c-125 125 -259 88 -297 -81 -18 -80 -2 -122 81 -208 84 -87 110 -136 110 -207
0 -62 -24 -119 -70 -172 -114 -129 -281 -88 -345 86 -26 68 -26 224 -1 318 24
94 89 218 146 282 88 99 201 134 288 89z m-790 -55 c169 -85 316 -371 300
-580 -15 -186 -152 -291 -288 -221 -37 19 -99 85 -121 127 -46 90 -31 174 50
273 66 82 81 115 81 177 0 41 -7 65 -31 106 -68 120 -176 124 -274 9 -44 -51
-45 -38 -2 33 25 42 44 61 87 83 66 35 120 33 198 -7z"/>
<path d="M11218 15670 c-3 -8 -15 -47 -27 -86 -12 -39 -39 -98 -60 -131 l-39
-61 20 -28 c34 -51 75 -137 92 -194 14 -46 15 -64 5 -110 l-12 -55 -12 41
c-30 99 -97 188 -183 243 -51 32 -139 61 -184 61 -26 0 -28 -3 -22 -27 41
-189 172 -318 352 -348 l42 -7 -2 -381 c0 -210 -3 -366 -5 -347 -10 101 -38
244 -63 317 -69 208 -200 333 -379 364 -136 24 -294 -32 -395 -141 -57 -63
-140 -214 -153 -280 l-6 -34 65 52 c36 28 100 68 141 88 347 165 731 -153 776
-644 5 -55 13 -98 20 -100 8 -3 10 -241 9 -880 -2 -711 -3 -806 -9 -502 -7
418 -9 431 -80 575 -50 103 -139 221 -279 370 -248 265 -306 340 -357 466 -48
119 -39 287 23 427 32 73 11 69 -75 -18 -176 -175 -218 -438 -112 -690 47
-112 113 -209 305 -450 281 -351 374 -493 450 -685 40 -103 90 -299 107 -422
7 -45 16 -83 21 -83 4 0 8 -109 7 -242 l0 -243 -43 120 c-91 259 -218 457
-426 666 -194 194 -316 281 -765 547 -212 125 -325 205 -432 306 -162 153
-277 341 -329 541 -22 83 -27 123 -28 235 0 132 8 195 42 310 12 42 17 49 19
30 8 -57 15 -70 45 -86 34 -18 94 -15 142 7 35 16 33 24 -13 37 -80 24 -121
81 -121 167 0 42 -11 58 -25 35 -13 -20 -85 -50 -123 -50 -25 0 -54 10 -85 30
-26 17 -50 30 -53 30 -8 0 7 -61 22 -92 34 -65 96 -87 149 -52 23 15 23 12
-14 -67 -68 -146 -85 -279 -56 -455 14 -86 60 -235 91 -296 8 -16 12 -28 9
-28 -3 0 -31 53 -64 118 -32 65 -78 141 -100 170 -143 181 -357 215 -555 88
-97 -62 -192 -160 -118 -122 112 58 287 76 395 41 118 -37 262 -146 401 -300
44 -49 85 -89 91 -88 5 1 30 -28 55 -65 64 -96 207 -234 338 -330 63 -45 234
-153 380 -241 383 -228 534 -340 699 -514 235 -250 375 -545 423 -890 20 -141
-6 -315 -60 -403 l-21 -33 37 -48 c52 -67 91 -155 111 -245 17 -81 27 -92 31
-36 6 85 54 199 118 283 30 39 34 52 25 64 -30 41 -55 113 -67 195 -18 121
-18 163 6 292 64 357 197 611 455 869 149 150 313 270 636 465 150 90 323 200
383 244 130 94 282 243 346 338 25 37 50 66 56 65 5 -1 37 30 71 68 164 188
309 294 456 332 83 21 184 12 296 -27 47 -16 87 -27 89 -25 6 6 -62 64 -131
112 -113 80 -228 107 -338 79 -133 -34 -231 -128 -324 -308 -64 -123 -82 -148
-40 -55 57 129 88 326 74 469 -8 88 -29 156 -70 240 -35 69 -35 74 -7 54 34
-24 85 -20 114 9 30 30 54 84 54 120 l0 26 -39 -31 c-64 -52 -142 -53 -200 -4
-17 14 -35 23 -41 19 -5 -3 -10 -29 -10 -57 0 -33 -7 -62 -20 -84 -20 -32 -90
-74 -123 -74 -9 0 -17 -4 -17 -8 0 -14 52 -34 106 -39 43 -5 54 -2 78 18 15
14 31 40 35 59 7 33 8 30 30 -55 44 -168 40 -390 -11 -555 -22 -70 -87 -213
-112 -245 -9 -11 0 14 19 55 45 98 65 178 65 261 0 224 -165 406 -378 417 -93
5 -146 -14 -207 -75 -25 -24 -45 -49 -45 -54 0 -5 30 -9 68 -9 212 0 405 -146
456 -345 19 -72 20 -120 3 -202 -9 -41 -10 -64 -3 -66 34 -11 -175 -236 -321
-346 -101 -76 -341 -227 -348 -219 -2 2 25 25 61 52 146 108 226 263 226 439
0 173 -88 293 -242 333 -72 18 -162 8 -240 -28 l-45 -21 60 -11 c124 -24 201
-83 253 -196 22 -47 26 -70 26 -150 1 -81 -3 -104 -25 -158 -35 -83 -78 -151
-150 -241 -32 -41 -57 -76 -55 -79 3 -2 31 10 62 27 89 48 75 29 -18 -24 -455
-261 -756 -549 -935 -890 -31 -60 -76 -163 -98 -229 l-42 -118 -6 213 c-10
311 -8 2149 2 2149 4 0 11 37 14 83 24 329 206 605 454 688 53 17 82 21 158
17 85 -3 100 -7 178 -46 46 -23 108 -63 136 -88 29 -26 54 -44 56 -42 3 3 -3
29 -14 59 -63 184 -175 314 -320 371 -44 17 -77 22 -156 22 -88 1 -107 -2
-158 -26 -119 -56 -185 -122 -247 -246 -52 -105 -90 -277 -103 -472 -2 -25 -4
142 -5 371 l-2 416 58 12 c163 36 308 184 328 334 l6 44 -50 -8 c-152 -24
-279 -132 -329 -277 l-21 -64 -12 55 c-10 50 -9 62 15 134 14 43 43 105 64
139 l38 60 -20 25 c-30 37 -68 117 -93 194 -12 39 -24 63 -26 55z m62 -180
c12 -25 31 -57 41 -71 18 -25 18 -26 -9 -65 -14 -21 -40 -73 -57 -116 l-31
-76 -20 56 c-10 31 -36 82 -56 114 l-38 59 38 63 c20 34 46 88 57 120 l19 57
17 -48 c9 -27 26 -68 39 -93z m-333 -190 c112 -51 208 -168 229 -279 l7 -34
-46 6 c-65 9 -156 58 -211 113 -51 51 -100 138 -111 198 l-7 37 38 -6 c22 -4
67 -20 101 -35z m687 13 c-13 -60 -65 -155 -110 -203 -52 -56 -148 -108 -213
-117 -37 -5 -41 -3 -41 15 0 79 102 223 197 279 48 28 115 51 151 52 19 1 22
-3 16 -26z m-386 -2078 c2 -973 0 -1790 -3 -1815 -6 -39 -8 -42 -18 -25 -9 15
-13 475 -15 1800 -2 979 0 1800 4 1825 l7 45 11 -30 c7 -21 11 -559 14 -1800z
m603 1675 c141 -26 273 -137 349 -293 46 -96 51 -120 18 -90 -122 111 -299
162 -441 129 -232 -54 -401 -243 -477 -531 l-19 -70 0 85 c-1 262 76 516 195
640 104 109 238 156 375 130z m-1008 -32 c111 -52 208 -168 260 -313 42 -119
78 -350 76 -489 l-1 -51 -13 60 c-60 265 -213 469 -413 546 -87 34 -227 38
-312 9 -67 -22 -143 -64 -194 -107 -16 -13 -31 -22 -33 -19 -3 3 16 48 41 101
35 71 63 112 109 159 102 103 184 137 327 133 78 -2 105 -8 153 -29z m2571
-543 c-37 -78 -85 -84 -155 -18 -27 25 -48 48 -46 50 2 2 21 -4 42 -13 44 -18
97 -12 141 16 35 24 41 13 18 -35z m-4289 -1 c17 -3 50 1 73 9 l42 15 -22 -30
c-25 -36 -75 -68 -104 -68 -21 0 -84 60 -84 80 0 4 -3 16 -6 25 -6 14 -1 13
32 -4 21 -12 52 -24 69 -27z m4075 -39 c21 -99 -27 -147 -122 -125 l-51 13 49
23 c58 28 80 52 94 105 6 21 13 39 15 39 2 0 9 -25 15 -55z m-3893 -44 c11
-14 41 -38 68 -53 l49 -26 -45 -9 c-24 -5 -57 -6 -74 -1 -46 12 -57 35 -52
100 6 73 19 95 28 49 4 -18 16 -45 26 -60z m1154 17 c-22 -64 -26 -89 -25
-203 0 -112 3 -137 22 -184 49 -117 133 -225 354 -459 145 -154 227 -260 277
-361 81 -161 91 -237 90 -641 l-1 -295 -27 110 c-80 323 -179 503 -480 878
-264 327 -319 410 -366 547 -80 235 -40 454 112 611 36 38 67 69 68 69 1 0
-10 -33 -24 -72z m-1268 -98 c-95 -372 24 -764 318 -1046 126 -121 255 -208
614 -419 294 -173 470 -306 640 -488 214 -228 347 -471 430 -782 32 -123 34
-129 40 -123 3 3 21 61 39 130 115 419 308 712 656 994 118 95 217 161 476
316 310 186 417 260 536 376 304 294 421 688 317 1063 -11 39 -17 74 -14 77 9
9 74 -143 90 -210 43 -181 1 -421 -111 -638 -127 -246 -327 -429 -734 -671
-556 -331 -773 -516 -968 -824 -120 -191 -222 -526 -222 -730 0 -103 26 -240
56 -296 l26 -46 -35 -49 c-47 -66 -66 -106 -93 -189 -12 -38 -23 -62 -23 -52
-2 43 -47 148 -92 217 l-50 74 25 46 c13 25 30 72 37 105 19 90 17 284 -4 385
-72 343 -224 619 -469 855 -171 166 -313 265 -733 513 -351 208 -528 361 -669
579 -154 238 -210 536 -144 753 20 63 76 186 83 179 1 -2 -8 -47 -22 -99z
m2004 -32 c-2 -13 -4 -5 -4 17 -1 22 1 32 4 23 2 -10 2 -28 0 -40z m1766 -76
c111 -51 191 -148 221 -267 27 -101 15 -208 -36 -324 l-23 -53 0 109 c0 100
-2 113 -31 173 -78 164 -226 265 -418 285 l-68 7 33 35 c54 56 102 74 185 70
53 -3 88 -12 137 -35z m894 -213 c58 -22 179 -96 203 -124 9 -11 -2 -9 -46 7
-48 18 -81 22 -179 22 -107 0 -126 -2 -181 -26 -90 -38 -172 -97 -284 -204
l-99 -95 62 121 c88 174 174 263 295 306 58 21 162 17 229 -7z m-4981 -24 c95
-46 168 -129 243 -275 l65 -125 -94 88 c-107 101 -213 175 -297 208 -80 32
-247 32 -343 1 l-65 -21 40 34 c46 39 141 92 199 112 67 22 183 12 252 -22z
m3665 -248 c109 -56 169 -161 169 -294 0 -203 -112 -372 -335 -504 l-40 -23
36 44 c52 64 121 176 150 240 21 47 24 70 24 165 0 98 -3 116 -26 165 -49 104
-115 160 -223 191 l-61 16 50 16 c28 9 82 16 122 16 62 1 80 -3 134 -32z m699
-177 c-6 -11 -13 -20 -16 -20 -2 0 0 9 6 20 6 11 13 20 16 20 2 0 0 -9 -6 -20z
m-2043 -1367 c-2 -16 -4 -5 -4 22 0 28 2 40 4 28 2 -13 2 -35 0 -50z"/>
<path d="M9822 15445 c-45 -49 -70 -88 -95 -148 -32 -78 -38 -85 -110 -140
-46 -35 -87 -76 -102 -102 -43 -73 -72 -264 -44 -292 7 -7 -1 -26 -31 -64 -22
-30 -55 -83 -73 -119 -29 -58 -32 -74 -32 -151 0 -81 2 -90 30 -131 43 -61 95
-88 170 -88 73 0 127 27 167 85 43 61 54 138 40 267 -9 80 -10 119 -1 152 21
85 107 155 190 156 81 0 148 -83 157 -196 2 -36 8 -67 13 -69 8 -6 29 81 29
124 0 56 -31 132 -68 169 -113 113 -333 70 -544 -108 -21 -18 -38 -28 -38 -22
0 12 88 94 181 167 121 95 130 111 144 280 12 134 15 146 50 214 21 39 35 74
33 77 -3 3 -33 -25 -66 -61z m-4 -57 c-13 -36 -22 -92 -27 -173 -5 -79 -13
-130 -23 -150 -18 -34 -81 -95 -148 -145 -25 -18 -69 -56 -98 -84 l-54 -51 6
65 c16 157 49 224 143 288 77 52 87 65 121 149 24 59 84 153 97 153 2 0 -6
-24 -17 -52z m181 -464 c32 -16 62 -41 77 -63 29 -44 44 -119 34 -164 -7 -29
-8 -29 -9 -6 -2 39 -21 90 -48 127 -70 93 -208 82 -289 -26 -42 -54 -50 -108
-35 -231 21 -175 -19 -283 -122 -326 -76 -32 -171 -7 -221 58 -15 19 -32 59
-38 90 -10 46 -9 65 6 122 38 139 182 304 335 384 131 68 222 78 310 35z"/>
<path d="M12581 15463 c38 -61 59 -132 59 -202 1 -100 17 -181 45 -221 15 -21
73 -74 129 -118 56 -44 116 -96 134 -116 17 -20 34 -36 37 -36 9 0 6 114 -5
171 -19 99 -53 153 -138 217 -46 35 -84 71 -94 92 -9 19 -28 60 -42 90 -24 52
-125 170 -146 170 -5 0 4 -21 21 -47z m105 -115 c61 -132 69 -143 136 -193 37
-27 76 -62 88 -78 32 -40 57 -122 65 -207 l7 -75 -48 46 c-27 26 -71 63 -99
84 -27 20 -73 59 -101 86 -60 58 -70 88 -78 231 -3 60 -13 115 -25 149 l-20
52 28 -27 c16 -15 37 -46 47 -68z"/>
<path d="M13163 15329 c-169 -83 -216 -411 -98 -678 13 -31 19 -47 12 -37
-109 172 -250 288 -406 336 -219 68 -378 -61 -340 -276 6 -35 14 -64 19 -64 4
0 10 28 12 63 11 128 94 220 182 201 84 -18 143 -72 167 -152 10 -34 10 -64 0
-150 -14 -127 -5 -194 37 -262 76 -123 256 -127 339 -7 23 34 29 53 31 116 3
51 -1 91 -12 121 -8 24 -14 46 -12 47 2 2 15 -14 30 -36 51 -74 124 -111 216
-111 49 0 65 5 106 33 155 105 97 308 -119 417 -45 23 -93 51 -106 63 -38 35
-61 95 -61 165 0 114 41 166 128 164 54 -1 121 -23 162 -52 47 -34 43 -5 -6
40 -87 80 -193 103 -281 59z m211 -23 c56 -33 68 -50 22 -31 -98 41 -191 23
-230 -44 -27 -47 -27 -159 1 -222 27 -61 54 -85 141 -125 121 -56 212 -165
212 -254 0 -126 -139 -214 -264 -166 -50 19 -133 101 -165 163 -109 215 -104
502 12 639 15 18 46 42 70 54 56 28 138 23 201 -14z m-670 -382 c203 -82 388
-294 403 -461 7 -73 -8 -122 -50 -170 -86 -98 -236 -81 -304 35 -28 47 -28 48
-28 232 0 177 -1 187 -23 223 -28 44 -73 80 -121 96 -108 36 -190 -19 -225
-149 l-15 -55 0 58 c-2 186 162 273 363 191z"/>
<path d="M9093 15321 c-48 -22 -135 -99 -127 -112 3 -5 22 2 42 16 20 13 64
31 98 40 51 13 67 13 99 3 57 -19 79 -55 83 -139 7 -126 -32 -187 -165 -250
-120 -57 -203 -166 -203 -265 0 -149 176 -235 316 -154 243 139 293 692 76
844 -56 40 -154 47 -219 17z m207 -25 c91 -60 134 -172 135 -351 0 -131 -19
-214 -75 -325 -70 -138 -200 -210 -307 -169 -64 24 -123 105 -123 169 0 82 98
198 214 254 86 41 112 65 139 125 28 63 28 175 1 222 -38 66 -114 84 -211 50
-29 -10 -53 -17 -53 -15 0 1 14 13 31 25 80 56 178 62 249 15z"/>
<path d="M11943 14364 c3 -11 17 -49 31 -85 54 -143 53 -296 -3 -416 -54 -114
-104 -178 -364 -460 -181 -196 -273 -342 -314 -496 -13 -52 -17 -135 -20 -499
-3 -308 -1 -438 6 -438 6 0 11 19 11 41 0 63 47 282 85 395 77 231 165 373
460 744 183 229 240 311 290 415 56 117 75 197 75 321 0 173 -43 284 -154 402
-77 81 -113 107 -103 76z m187 -214 c84 -167 79 -381 -14 -574 -49 -100 -107
-184 -276 -396 -188 -236 -245 -314 -315 -425 -105 -166 -172 -333 -216 -535
-11 -52 -21 -96 -22 -97 -2 -1 -2 154 -2 345 2 373 6 410 59 541 50 124 122
220 344 461 79 85 166 184 193 220 65 86 127 210 140 285 17 92 -1 226 -46
350 -15 42 126 -117 155 -175z"/>
<path d="M9565 14097 c-116 -30 -232 -125 -281 -231 -61 -135 -42 -330 48
-483 29 -48 37 -41 22 19 -70 270 122 525 421 561 52 6 95 14 95 18 0 13 -77
82 -112 100 -48 25 -131 31 -193 16z m180 -26 c22 -10 55 -34 73 -53 l33 -35
-73 -6 c-184 -16 -330 -113 -410 -276 -28 -56 -33 -77 -38 -170 l-5 -106 -22
55 c-36 88 -46 145 -41 228 7 103 37 179 99 247 55 59 96 88 167 116 63 24
164 24 217 0z"/>
<path d="M9953 13606 c-88 -29 -162 -104 -199 -201 -37 -97 -19 -257 42 -376
33 -66 125 -163 209 -219 76 -51 155 -94 155 -84 0 3 -28 41 -62 84 -159 198
-207 348 -162 500 40 135 154 233 282 242 52 4 47 15 -15 39 -72 27 -191 34
-250 15z m210 -16 c41 -12 50 -30 15 -30 -39 0 -125 -47 -167 -90 -22 -23 -53
-67 -68 -98 -26 -52 -28 -66 -28 -172 0 -115 0 -115 42 -200 23 -47 67 -118
98 -159 31 -40 54 -75 52 -77 -2 -2 -40 21 -85 52 -194 133 -282 293 -270 490
9 146 99 260 233 295 35 10 124 4 178 -11z"/>
<path d="M12693 12805 c-29 -8 -69 -21 -90 -30 -56 -24 -283 -156 -283 -166 0
-4 28 3 63 16 204 77 408 73 568 -11 70 -37 188 -149 211 -200 13 -28 28 -32
28 -6 0 91 -46 225 -96 285 -91 108 -251 152 -401 112z m267 -31 c109 -49 190
-161 206 -283 l7 -53 -84 84 c-89 89 -150 126 -255 153 -100 26 -303 16 -409
-20 -29 -10 57 41 147 86 145 74 274 85 388 33z"/>
<path d="M9524 12792 c-96 -34 -182 -117 -219 -216 -15 -40 -35 -182 -27 -191
2 -2 23 22 47 53 61 83 126 138 207 177 98 47 162 58 298 52 93 -4 134 -11
213 -37 55 -17 101 -30 103 -27 10 9 -266 157 -338 181 -93 32 -206 35 -284 8z
m241 -7 c54 -15 280 -124 272 -132 -2 -2 -33 4 -68 13 -80 21 -254 24 -329 5
-125 -31 -227 -98 -313 -206 l-40 -50 7 53 c13 97 44 162 111 229 50 50 73 65
126 82 78 24 155 26 234 6z"/>
<path d="M18082 12444 c-16 -61 -96 -144 -175 -184 -33 -16 -65 -34 -71 -38
-6 -5 -38 -19 -71 -32 -194 -75 -454 -233 -617 -374 l-87 -75 20 42 c27 62 25
158 -5 223 -29 63 -82 123 -143 164 -66 43 -77 38 -38 -20 63 -94 79 -151 79
-280 0 -100 -4 -125 -28 -190 -15 -41 -27 -83 -27 -93 0 -10 -22 -50 -49 -90
-26 -40 -87 -144 -135 -232 -95 -176 -175 -315 -180 -315 -2 0 6 21 18 48 17
37 21 66 22 142 0 82 -4 103 -27 152 -44 95 -153 179 -270 208 -62 16 -82 8
-39 -15 19 -9 58 -40 87 -67 132 -125 153 -332 62 -631 -18 -59 -27 -74 -86
-128 -99 -91 -243 -196 -365 -264 -58 -33 -107 -63 -107 -66 0 -3 21 -4 48 -2
39 4 54 0 85 -21 l38 -26 169 155 c93 86 183 173 200 195 18 22 36 40 42 40 5
0 30 18 56 39 157 131 375 184 535 130 87 -29 146 -69 226 -155 38 -41 72 -74
75 -74 3 0 6 24 6 54 0 43 -5 61 -24 83 -14 16 -28 42 -31 56 -4 15 -22 40
-40 55 -19 15 -47 46 -63 68 -57 79 -133 105 -218 76 -42 -15 -55 -16 -80 -5
-64 27 -146 6 -187 -49 -11 -15 -29 -28 -40 -28 -10 0 -28 -5 -39 -11 -17 -9
-14 0 16 53 20 34 66 118 102 186 36 67 68 122 70 122 3 0 0 -9 -6 -19 -20
-39 -9 -40 37 -5 211 161 437 154 621 -19 49 -47 41 -12 -19 77 -103 155 -257
218 -416 171 -60 -18 -141 -86 -179 -151 -14 -24 -28 -44 -31 -44 -3 0 8 21
23 48 105 181 273 374 454 522 329 270 802 432 1139 391 102 -13 102 -12 208
-118 109 -108 139 -236 98 -422 -9 -41 3 -39 47 7 70 71 84 145 47 254 -33 99
-93 174 -174 217 -80 43 10 10 122 -45 93 -45 127 -68 199 -137 96 -90 167
-190 207 -289 l25 -64 -17 -75 c-21 -89 -38 -123 -83 -166 -42 -41 -105 -63
-179 -63 -33 0 -59 -3 -59 -6 0 -25 124 -84 175 -84 102 1 193 85 196 183 1
31 2 30 10 -8 11 -53 1 -182 -22 -273 -43 -171 -175 -351 -281 -385 -158 -49
-259 -21 -346 98 -20 28 -21 28 -22 8 0 -38 39 -128 68 -155 38 -36 65 -48
109 -49 l38 0 -40 -15 c-22 -9 -80 -18 -130 -21 -152 -9 -279 33 -376 124 -71
67 -102 136 -107 242 -2 48 0 103 6 124 14 50 -4 58 -19 9 -8 -29 -20 -44 -45
-55 -48 -23 -77 -86 -77 -164 1 -70 -18 -102 -42 -70 -7 9 -23 17 -37 17 -49
0 -65 -48 -24 -75 21 -14 27 -14 70 4 54 24 66 47 66 130 0 48 5 66 31 104 17
26 32 47 32 47 1 0 2 -39 2 -88 0 -75 4 -95 28 -144 33 -68 124 -156 197 -190
l51 -25 -40 -15 c-24 -10 -48 -29 -61 -50 -19 -29 -21 -44 -17 -128 2 -53 9
-105 15 -115 10 -18 11 -15 12 18 0 62 20 122 53 162 32 39 115 85 155 85 12
0 22 5 22 11 0 6 11 8 29 4 40 -9 178 10 253 35 98 33 196 96 278 179 l75 76
-18 -55 c-28 -80 -20 -189 18 -265 35 -68 112 -148 186 -192 90 -54 94 -49 27
34 -121 149 -154 249 -144 443 8 164 10 173 40 258 105 301 13 658 -239 921
-69 72 -74 80 -38 56 79 -52 176 -43 231 20 40 45 48 97 25 165 -20 59 -43 78
-43 35 0 -37 -35 -100 -68 -124 -79 -56 -200 -49 -332 18 -204 104 -434 132
-710 85 -35 -6 -35 -6 -12 11 44 33 64 105 46 173 -9 34 -19 27 -32 -24z m13
-93 c-18 -36 -44 -54 -105 -76 -48 -17 -47 -16 17 34 26 20 53 53 70 89 l28
57 3 -37 c2 -20 -4 -51 -13 -67z m1135 -141 c0 -60 -29 -106 -83 -130 -57 -27
-74 -25 -148 12 l-64 33 72 6 c107 10 174 59 190 139 l6 32 13 -23 c7 -13 13
-44 14 -69z m-685 61 c186 -38 321 -113 460 -255 133 -136 220 -296 260 -479
13 -59 16 -109 13 -205 -5 -147 -30 -235 -101 -362 -49 -87 -180 -223 -247
-258 -25 -12 -37 -17 -26 -10 179 124 273 250 328 443 19 66 22 103 22 215 -1
162 -22 258 -89 395 -81 166 -198 290 -358 379 -82 46 -252 102 -356 117 -343
49 -799 -97 -1156 -370 -85 -65 -247 -223 -318 -311 -88 -109 -151 -209 -277
-440 -179 -329 -265 -445 -475 -640 -49 -46 -115 -108 -146 -138 l-57 -54 -26
17 c-15 10 -41 21 -58 24 -31 6 -30 8 71 69 334 202 470 357 726 827 115 211
175 304 269 414 256 300 703 553 1101 625 118 21 330 20 440 -3z m93 -105 c88
-44 158 -145 181 -258 16 -73 2 -127 -45 -176 l-34 -37 7 45 c5 25 7 82 7 128
-1 74 -5 91 -37 156 -23 46 -55 90 -86 119 -28 26 -48 47 -45 47 2 0 26 -11
52 -24z m-1655 -58 c109 -107 136 -236 73 -341 -31 -50 -112 -140 -102 -112
29 77 38 146 34 247 -4 101 -7 113 -44 188 -22 44 -37 80 -32 80 4 0 36 -28
71 -62z m2231 -569 c26 -131 -29 -241 -135 -269 -46 -13 -87 -6 -141 21 -57
29 -53 36 20 41 74 5 113 21 156 65 33 32 76 117 76 151 0 33 17 27 24 -9z
m-2820 -91 c52 -26 134 -104 156 -149 51 -98 47 -217 -9 -335 -34 -71 -117
-182 -107 -144 31 121 39 177 39 285 0 168 -32 252 -132 343 -33 30 -34 32
-11 26 14 -4 43 -15 64 -26z m806 16 c86 -26 165 -88 229 -182 l23 -33 -57 40
c-113 79 -229 105 -348 77 -66 -16 -147 -51 -199 -87 -39 -28 -41 -24 -12 24
91 146 221 204 364 161z m921 -504 c9 -76 47 -156 100 -209 50 -49 158 -105
236 -121 56 -12 227 -9 283 5 l25 6 -25 -12 c-37 -17 -226 -23 -291 -10 -191
40 -332 184 -346 355 -7 78 8 66 18 -14z m-1241 16 c24 -11 32 -11 61 5 70 37
158 16 207 -50 15 -19 46 -53 70 -75 23 -22 42 -48 42 -59 0 -11 14 -35 30
-54 23 -26 30 -43 30 -76 l0 -42 -32 40 c-175 215 -423 268 -672 143 -34 -17
-74 -40 -90 -51 -16 -12 -27 -16 -23 -11 73 119 103 152 143 160 19 3 40 16
49 31 9 14 35 33 58 44 44 20 80 19 127 -5z m2316 -105 c-8 -83 8 -213 35
-286 17 -46 56 -112 116 -195 17 -22 15 -22 -27 7 -157 109 -227 264 -185 408
18 62 51 135 61 135 4 0 4 -31 0 -69z m-1256 -36 c16 -19 6 -45 -18 -45 -29 0
-48 26 -32 45 16 19 34 19 50 0z m70 1 c0 -2 -8 -10 -17 -17 -16 -13 -17 -12
-4 4 13 16 21 21 21 13z m668 -74 c42 -24 57 -27 135 -27 l89 0 -59 -27 c-32
-16 -73 -28 -91 -28 -61 0 -118 44 -147 112 -20 50 -19 56 6 24 11 -14 42 -38
67 -54z m197 -82 c-3 -5 -12 -10 -18 -10 -7 0 -6 4 3 10 19 12 23 12 15 0z
m-45 -20 c-8 -5 -19 -10 -25 -10 -5 0 -3 5 5 10 8 5 20 10 25 10 6 0 3 -5 -5
-10z m-387 -66 c4 -4 -15 -17 -41 -29 -57 -26 -107 -84 -125 -140 l-12 -40 -3
50 c-7 110 34 165 123 165 28 0 55 -3 58 -6z"/>
<path d="M4346 12418 c-3 -13 -6 -45 -6 -72 0 -44 4 -53 38 -85 l38 -36 -85
13 c-56 8 -139 11 -236 8 -181 -5 -265 -25 -410 -96 -148 -73 -256 -82 -340
-30 -35 22 -75 90 -75 129 0 40 -24 17 -43 -41 -16 -46 -17 -62 -7 -98 15 -55
55 -95 109 -110 54 -14 99 -5 158 32 47 30 47 29 -25 -42 -123 -123 -216 -281
-265 -450 -19 -63 -22 -100 -22 -235 0 -155 1 -163 33 -250 36 -101 47 -175
47 -320 -1 -161 -51 -286 -166 -410 -23 -25 -39 -48 -36 -52 9 -9 112 55 167
104 83 74 140 190 140 283 0 33 -18 114 -34 152 -4 9 30 -21 76 -67 68 -66
103 -91 179 -129 104 -51 200 -76 301 -76 152 0 274 -79 298 -193 6 -31 9 -66
5 -77 -3 -11 -2 -20 3 -20 14 0 32 88 32 150 0 98 -45 160 -117 160 -23 0 -14
7 43 35 85 41 164 120 201 202 22 47 27 73 27 135 0 87 9 90 45 14 14 -29 21
-62 21 -104 0 -66 20 -102 58 -102 10 0 23 -5 30 -12 21 -21 62 6 62 41 0 44
-60 59 -80 20 -20 -37 -40 -5 -40 65 0 79 -31 144 -78 166 -23 11 -35 26 -44
53 -15 51 -30 47 -21 -5 5 -24 7 -77 7 -119 -4 -222 -196 -376 -464 -371 -82
1 -221 29 -157 31 67 2 126 46 157 116 20 46 33 105 22 105 -4 -1 -21 -20 -39
-44 -65 -89 -183 -118 -317 -78 -49 14 -70 28 -116 74 -132 136 -200 315 -199
523 l1 100 12 -51 c16 -66 48 -109 99 -136 74 -38 169 -26 243 31 32 25 24 32
-47 35 -80 4 -149 34 -185 81 -33 43 -64 126 -64 169 0 19 -5 36 -11 38 -7 2
0 29 19 75 85 200 230 351 422 442 95 44 159 65 98 31 -84 -46 -148 -135 -175
-244 -24 -97 -8 -162 54 -223 25 -24 48 -41 51 -39 3 3 -1 32 -8 65 -20 94 -9
214 24 279 31 61 92 131 150 174 21 15 35 28 30 29 -5 0 2 5 16 11 45 19 286
22 396 5 261 -42 524 -151 753 -315 165 -117 372 -328 477 -487 82 -122 101
-168 27 -61 -36 52 -107 101 -168 117 -60 17 -171 6 -230 -22 -62 -29 -161
-127 -199 -197 -15 -29 -26 -55 -24 -57 2 -2 28 17 58 42 112 93 234 133 345
112 81 -15 164 -50 236 -99 67 -46 74 -48 59 -20 -6 11 -9 20 -6 20 2 0 38
-62 79 -137 41 -76 85 -155 97 -175 l22 -38 -34 6 c-19 4 -46 21 -64 40 -50
54 -127 70 -186 40 -24 -13 -32 -13 -60 2 -18 9 -56 16 -84 16 -62 0 -117 -33
-154 -93 -14 -22 -36 -46 -50 -55 -14 -8 -32 -27 -39 -43 -17 -36 -22 -44 -46
-79 -20 -29 -28 -114 -12 -130 4 -5 20 7 34 26 54 71 136 140 210 177 66 32
86 37 165 41 51 3 115 -1 147 -8 77 -16 210 -81 276 -135 30 -25 57 -45 61
-45 3 0 42 -37 87 -83 149 -151 325 -308 333 -296 14 23 95 51 130 44 19 -3
34 -4 34 -2 0 2 -53 34 -117 71 -135 76 -245 156 -353 254 l-75 69 -27 99
c-57 207 -62 351 -17 469 25 66 104 159 164 191 42 22 46 37 8 28 -162 -38
-275 -125 -319 -246 -20 -55 -20 -178 0 -243 15 -49 15 -50 -3 -26 -10 13 -65
110 -122 215 -57 105 -132 232 -166 283 -34 51 -58 93 -54 93 4 0 -6 39 -23
88 -25 74 -30 102 -30 192 -1 119 13 171 69 265 19 32 35 61 35 66 0 16 -97
-51 -138 -95 -69 -75 -87 -119 -87 -216 0 -71 4 -92 23 -125 l24 -40 -49 46
c-161 154 -418 317 -646 408 -99 41 -203 97 -256 139 -42 34 -91 116 -91 155
0 25 -17 21 -24 -5z m71 -131 c10 -11 36 -33 58 -50 31 -23 34 -28 15 -22 -93
28 -132 67 -137 137 l-4 53 26 -49 c13 -27 33 -58 42 -69z m-1133 -124 c26
-51 95 -85 172 -87 35 0 64 -2 64 -4 0 -1 -21 -16 -47 -32 -83 -53 -189 -35
-228 39 -18 35 -20 98 -4 138 l12 28 7 -25 c4 -14 14 -40 24 -57z m1125 47
c366 -78 780 -313 1023 -580 97 -106 165 -204 259 -375 210 -381 288 -496 428
-635 95 -94 212 -182 353 -265 50 -30 83 -55 72 -55 -10 0 -36 -9 -57 -20 -25
-14 -43 -18 -53 -12 -39 22 -387 369 -437 435 -70 92 -138 204 -257 422 -146
267 -238 395 -394 548 -336 331 -778 528 -1186 529 -158 1 -251 -16 -385 -69
-126 -51 -217 -107 -300 -188 -178 -174 -268 -390 -267 -645 0 -134 22 -230
77 -345 73 -150 160 -242 309 -321 76 -42 66 -45 -13 -4 -168 84 -306 259
-373 470 -20 64 -23 95 -22 215 0 122 4 151 27 228 32 104 93 228 152 312 62
87 191 206 282 259 85 50 224 100 325 115 95 15 327 5 437 -19z m-586 -131
c-106 -106 -139 -230 -107 -401 8 -43 -13 -34 -47 20 -29 44 -30 52 -26 122 3
59 10 88 35 135 32 63 96 132 147 158 51 27 50 19 -2 -34z m1707 -11 c-49 -92
-63 -159 -57 -273 3 -55 13 -122 21 -150 l15 -50 -55 59 c-90 98 -105 196 -48
313 22 46 124 153 145 153 4 0 -6 -24 -21 -52z m-2217 -681 c43 -73 123 -117
214 -117 53 0 49 -14 -11 -41 -144 -65 -289 41 -273 201 10 88 18 101 32 48 6
-24 23 -65 38 -91z m2821 24 c-97 -72 -144 -185 -144 -351 0 -84 23 -236 45
-295 16 -43 -90 104 -119 165 -28 59 -31 74 -31 165 0 89 3 105 27 150 36 69
101 128 178 164 81 39 95 39 44 2z m-648 -16 c54 -27 116 -91 150 -156 l14
-28 -58 35 c-96 56 -166 77 -262 78 -102 1 -164 -18 -244 -74 -32 -22 -59 -40
-62 -40 -11 0 57 89 95 123 109 98 246 121 367 62z m-1146 -578 c-40 -107
-153 -204 -280 -241 -71 -21 -203 -30 -260 -18 -37 8 -31 9 40 5 194 -11 368
64 456 197 27 41 53 134 56 200 1 33 3 27 5 -21 3 -49 -2 -80 -17 -122z m1184
117 c32 -16 37 -16 75 0 23 9 51 16 64 16 28 0 85 -34 110 -66 10 -13 27 -24
38 -24 36 0 58 -19 110 -97 48 -70 49 -75 21 -55 -58 42 -179 93 -258 109
-182 37 -374 -36 -495 -189 l-39 -50 0 45 c0 33 6 51 24 70 13 14 26 37 30 51
4 15 16 35 28 45 33 29 46 43 81 85 17 22 45 48 62 58 37 22 103 23 149 2z
m-2204 -154 c50 -130 14 -270 -98 -378 -32 -32 -73 -65 -91 -75 l-32 -19 40
54 c103 136 135 240 129 421 -4 118 -4 118 14 85 9 -18 27 -58 38 -88z m1137
73 c-3 -10 -5 -4 -5 12 0 17 2 24 5 18 2 -7 2 -21 0 -30z m111 -62 c21 -13 10
-46 -16 -49 -24 -4 -38 18 -28 43 6 17 24 19 44 6z m-716 -68 c-52 -101 -136
-122 -250 -64 l-36 18 80 0 c88 -1 150 21 194 68 31 33 36 25 12 -22z m-157
-133 c13 -6 15 -9 5 -9 -8 0 -22 4 -30 9 -18 12 -2 12 25 0z m52 -16 c-3 -3
-12 -4 -19 -1 -8 3 -5 6 6 6 11 1 17 -2 13 -5z m424 -62 c30 -34 46 -104 34
-149 -7 -27 -8 -27 -21 17 -16 56 -63 106 -128 136 -43 20 -46 23 -25 27 13 3
44 4 69 2 35 -2 50 -10 71 -33z"/>
<path d="M13365 12280 c-10 -19 -63 -80 -119 -135 -142 -141 -246 -192 -443
-215 -117 -14 -191 -9 -428 32 -215 37 -381 42 -485 15 -218 -57 -405 -225
-478 -430 -20 -58 -26 -96 -30 -197 -5 -138 1 -144 41 -42 80 197 224 341 401
399 108 35 264 36 491 3 217 -32 455 -33 566 -2 201 54 329 163 429 362 41 82
84 212 78 232 -3 7 -13 -3 -23 -22z m-20 -96 c-113 -301 -298 -450 -597 -484
-104 -12 -160 -9 -453 27 -312 37 -440 26 -581 -53 -120 -66 -220 -179 -289
-325 l-34 -74 0 60 c-1 285 210 552 495 625 117 30 252 27 475 -12 227 -39
425 -45 552 -15 151 36 302 132 402 257 26 33 50 60 51 60 2 0 -7 -30 -21 -66z"/>
<path d="M9070 12286 c0 -22 50 -157 81 -220 101 -202 241 -318 445 -367 126
-30 292 -28 559 6 415 54 563 20 744 -170 54 -57 82 -98 121 -177 27 -57 50
-109 50 -115 0 -7 5 -13 10 -13 15 0 12 164 -5 242 -51 243 -264 451 -515 504
-106 23 -295 14 -470 -21 -179 -36 -391 -45 -511 -21 -172 35 -336 142 -449
294 -39 53 -60 73 -60 58z m163 -193 c118 -107 251 -165 425 -184 118 -13 252
-2 455 37 273 52 430 42 597 -38 69 -33 101 -57 171 -127 127 -127 184 -249
195 -421 l5 -85 -48 91 c-89 167 -183 263 -318 324 -137 62 -263 68 -590 25
-442 -57 -643 -17 -825 165 -77 76 -132 166 -179 290 -29 76 -27 79 17 23 21
-26 64 -71 95 -100z"/>
<path d="M17700 12083 c-39 -6 -220 -95 -214 -105 3 -4 10 -6 15 -3 5 4 36 10
70 16 121 19 240 -22 325 -113 24 -26 47 -48 51 -48 10 0 -7 82 -29 132 -24
57 -73 103 -125 117 -39 11 -49 11 -93 4z m113 -24 c43 -22 77 -63 97 -116 29
-77 26 -81 -26 -33 -73 67 -142 94 -246 95 -93 0 -93 2 2 42 59 24 138 30 173
12z"/>
<path d="M4632 12014 c-46 -24 -80 -72 -103 -145 -32 -103 -27 -108 39 -42 87
88 134 108 257 108 55 0 112 -3 128 -8 53 -15 26 9 -60 52 -105 52 -202 65
-261 35z m218 -31 l65 -31 -55 5 c-101 10 -208 -29 -292 -105 -46 -41 -48 -28
-9 54 26 55 59 90 101 107 35 15 126 0 190 -30z"/>
<path d="M18090 11814 c-25 -131 3 -280 72 -383 38 -57 30 -86 -12 -46 -16 15
-27 31 -25 35 3 4 -10 27 -29 51 -39 51 -102 88 -203 118 -50 15 -78 29 -93
48 -30 38 -23 59 18 55 39 -4 62 12 62 42 0 26 -18 46 -41 46 -26 0 -89 -68
-89 -96 0 -64 51 -108 154 -133 66 -16 113 -41 166 -90 l45 -40 -80 39 c-51
25 -105 44 -149 50 -69 11 -156 5 -156 -10 0 -16 89 -86 143 -113 72 -35 126
-46 220 -47 98 0 103 -18 15 -50 -141 -51 -248 -152 -303 -284 l-16 -39 33 7
c119 23 275 144 333 261 17 33 31 62 33 64 1 3 7 0 12 -5 6 -6 6 -39 -2 -92
-15 -102 -1 -198 42 -290 32 -69 67 -122 79 -122 17 0 34 121 28 203 -6 96
-31 174 -81 250 -44 69 -28 80 34 24 25 -22 33 -33 18 -24 -53 33 -35 1 31
-54 52 -44 76 -73 105 -130 53 -102 70 -119 121 -119 51 0 135 49 135 80 0 24
-41 53 -63 44 -20 -7 -30 -37 -22 -63 4 -14 -1 -20 -22 -24 -47 -9 -75 13
-113 87 -19 37 -52 85 -72 106 l-38 38 60 -25 c33 -13 85 -28 117 -34 60 -11
167 -8 180 5 11 11 -71 79 -137 115 -82 44 -153 61 -251 61 -64 0 -88 4 -92
14 -6 14 59 40 67 27 6 -9 148 5 198 19 24 7 58 32 92 65 41 41 61 55 83 55
41 0 53 -15 40 -50 -13 -34 3 -60 37 -60 43 0 63 53 31 80 -8 7 -15 18 -15 26
0 21 -41 44 -78 44 -47 0 -98 -27 -129 -67 -32 -42 -50 -52 -138 -74 -96 -25
-97 -24 -29 17 95 57 170 142 209 238 l16 39 -33 -7 c-18 -3 -67 -23 -108 -43
-95 -46 -185 -134 -226 -220 -30 -65 -51 -77 -46 -27 1 16 3 76 4 134 2 87 -2
116 -20 169 -24 67 -85 171 -101 171 -5 0 -14 -30 -21 -66z m86 -59 c43 -89
59 -188 45 -276 -6 -35 -11 -68 -11 -73 0 -20 -34 22 -61 76 -55 109 -72 250
-42 357 6 23 7 23 21 5 8 -10 29 -50 48 -89z m-312 -8 c8 -12 7 -21 -6 -33
-21 -21 -61 -3 -51 24 13 35 38 39 57 9z m-86 -47 c-7 -10 -14 -18 -15 -16 -6
6 9 36 18 36 5 0 4 -9 -3 -20z m832 -33 c0 -24 -82 -137 -128 -177 -47 -40
-172 -110 -198 -110 -23 0 -16 25 27 89 52 78 114 132 202 176 74 37 97 43 97
22z m148 -143 c12 -8 22 -22 22 -31 0 -9 7 -21 17 -28 19 -14 12 -42 -13 -52
-24 -9 -46 24 -33 49 15 27 5 45 -33 62 -31 14 -32 14 -8 15 14 1 36 -6 48
-15z m-93 -6 c-11 -6 -43 -33 -70 -59 -48 -47 -96 -70 -140 -68 -11 0 5 7 35
15 43 11 64 24 95 58 39 43 70 65 90 65 6 0 1 -5 -10 -11z m-711 -38 c65 -20
186 -94 194 -118 3 -9 -13 -12 -55 -12 -110 0 -230 44 -308 114 l-40 35 71 1
c45 0 97 -8 138 -20z m276 -145 c0 -8 -7 -15 -15 -15 -8 0 -15 7 -15 15 0 8 7
15 15 15 8 0 15 -7 15 -15z m245 -30 c75 -20 164 -67 205 -110 l33 -34 -34 -6
c-67 -12 -214 22 -288 67 -50 31 -111 80 -111 90 0 14 132 9 195 -7z m-315
-28 c0 -28 -89 -144 -144 -189 -60 -48 -181 -107 -193 -94 -14 13 42 100 103
163 43 44 83 73 135 98 79 38 99 42 99 22z m121 -89 c43 -84 62 -178 55 -264
-3 -39 -9 -80 -13 -92 -8 -20 -9 -19 -32 13 -64 94 -98 242 -81 348 5 34 10
66 10 71 0 20 34 -22 61 -76z m409 -153 c10 -12 10 -18 0 -30 -7 -8 -18 -15
-25 -15 -19 0 -36 25 -29 44 8 20 38 21 54 1z m-92 -72 c25 5 32 3 22 -3 -25
-16 -66 -11 -91 11 l-24 20 28 -17 c19 -11 39 -15 65 -11z"/>
<path d="M18318 11858 c-43 -37 -48 -57 -41 -169 5 -90 2 -112 -16 -163 -11
-33 -19 -61 -17 -63 7 -7 46 56 62 99 12 33 13 65 8 144 l-7 101 29 22 29 23
5 -28 c7 -39 55 -58 76 -29 32 43 13 70 -56 79 -38 6 -49 3 -72 -16z m124 -16
c11 -11 1 -39 -17 -46 -22 -8 -45 17 -39 41 6 22 37 24 56 5z m-141 -242 c-6
-25 -8 -10 -8 55 0 83 1 86 8 35 4 -30 4 -71 0 -90z"/>
<path d="M4051 11820 c-70 -17 -69 -90 1 -90 24 0 30 5 35 30 6 34 23 38 45
13 25 -30 28 -52 18 -122 -13 -81 -1 -148 36 -204 14 -22 27 -37 29 -35 2 2
-5 33 -16 68 -18 55 -20 80 -14 162 7 111 -5 147 -55 173 -32 16 -30 16 -79 5z
m31 -18 c-7 -5 -10 -15 -7 -24 8 -19 -20 -42 -41 -34 -24 9 -13 49 16 57 35
10 47 10 32 1z m95 -109 c-3 -10 -5 -4 -5 12 0 17 2 24 5 18 2 -7 2 -21 0 -30z
m-10 -130 c-2 -21 -4 -4 -4 37 0 41 2 58 4 38 2 -21 2 -55 0 -75z"/>
<path d="M4311 11778 c-82 -125 -105 -275 -69 -439 2 -6 -2 -13 -9 -16 -6 -2
-26 24 -44 59 -61 115 -183 215 -306 252 -50 14 -53 14 -53 -3 0 -24 64 -129
108 -175 20 -21 64 -57 97 -79 38 -25 51 -37 35 -34 -14 4 -50 11 -80 18 -44
9 -63 20 -94 53 -60 63 -85 76 -143 76 -50 0 -83 -17 -83 -42 0 -6 -7 -19 -16
-29 -23 -25 -11 -67 21 -75 39 -10 58 12 51 58 -5 31 -3 39 14 48 30 16 55 4
114 -55 61 -60 97 -72 241 -79 50 -3 96 -5 103 -5 8 -1 12 -9 10 -18 -2 -14
-14 -16 -71 -14 -127 5 -252 -37 -355 -120 -75 -59 -70 -69 36 -69 91 0 166
16 235 52 l38 19 -40 -40 c-22 -22 -56 -72 -76 -110 -37 -75 -60 -94 -103 -89
-19 2 -27 9 -28 23 -3 49 -5 55 -29 61 -31 8 -55 -10 -55 -42 0 -28 63 -73
116 -81 50 -8 77 15 124 107 33 61 58 94 111 141 68 60 83 82 40 59 -33 -17
-25 -5 19 30 47 37 70 32 40 -10 -65 -92 -108 -250 -94 -350 9 -67 24 -120 33
-120 13 0 70 92 94 152 16 43 21 76 21 168 1 63 -3 130 -7 148 -15 56 18 38
55 -30 46 -87 130 -168 219 -212 41 -20 89 -39 108 -42 32 -7 33 -6 26 17 -35
120 -189 262 -330 304 -23 7 -41 19 -43 29 -3 14 4 16 50 10 66 -7 177 15 245
49 56 29 153 103 153 117 0 6 -38 10 -90 10 -100 0 -180 -21 -253 -67 l-42
-25 33 35 c42 43 111 82 177 98 66 16 99 33 124 65 33 42 27 86 -15 128 -20
20 -40 36 -46 36 -23 0 -48 -23 -48 -44 0 -32 22 -48 62 -44 27 2 34 -1 36
-18 5 -33 -47 -69 -145 -100 -77 -24 -94 -34 -140 -81 -29 -30 -53 -62 -53
-72 0 -25 -47 -68 -60 -55 -7 7 1 30 25 70 50 83 75 170 75 265 0 79 -16 179
-28 179 -4 0 -23 -23 -41 -52z m54 -123 c-1 -118 -13 -164 -70 -261 -19 -33
-30 -43 -38 -35 -16 16 -21 176 -7 240 12 53 58 160 82 189 22 26 33 -20 33
-133z m288 35 c7 -26 -19 -47 -41 -34 -23 15 -25 29 -7 47 19 19 41 13 48 -13z
m41 -36 c9 -24 2 -26 -12 -4 -7 11 -8 20 -3 20 5 0 12 -7 15 -16z m-726 -73
c75 -38 166 -126 205 -199 16 -30 27 -55 25 -57 -8 -9 -118 38 -165 71 -77 53
-183 180 -183 220 0 17 38 6 118 -35z m-204 -108 c-18 -2 -40 -13 -50 -24 -15
-16 -15 -23 -4 -43 15 -28 7 -46 -21 -46 -27 0 -35 26 -18 58 25 52 40 62 83
60 35 -1 37 -2 10 -5z m104 -54 c40 -41 61 -55 113 -70 56 -16 58 -18 19 -13
-25 4 -58 13 -75 22 -32 16 -130 112 -115 112 5 0 31 -23 58 -51z m816 0 c-68
-71 -192 -119 -307 -119 l-72 1 40 35 c78 70 191 113 299 113 l70 1 -30 -31z
m-418 -130 c10 -17 -13 -36 -27 -22 -12 12 -4 33 11 33 5 0 12 -5 16 -11z
m-92 -28 c8 -13 -66 -76 -123 -106 -72 -36 -154 -55 -236 -55 l-70 1 48 44
c56 52 136 92 221 110 72 16 153 19 160 6z m236 -63 c79 -38 176 -132 214
-206 24 -48 25 -52 8 -52 -38 0 -161 71 -216 125 -49 48 -116 145 -116 168 0
12 35 0 110 -35z m-153 -148 c-5 -93 -35 -189 -79 -253 -34 -50 -40 -39 -46
84 -5 112 15 194 70 289 l32 55 14 -45 c9 -30 12 -74 9 -130z m-443 -56 c20
-8 21 -38 1 -54 -29 -24 -60 21 -33 48 14 14 12 14 32 6z m132 -73 c-22 -24
-62 -35 -84 -22 -13 8 -8 10 24 11 24 0 47 6 54 15 7 8 15 15 18 15 3 0 -3 -9
-12 -19z"/>
<path d="M11841 11645 c-188 -53 -353 -209 -417 -395 -23 -64 -48 -272 -35
-285 2 -3 24 29 48 71 25 42 79 112 120 155 61 64 93 88 160 121 73 36 94 42
167 46 124 7 172 -12 264 -103 39 -40 75 -68 78 -63 14 22 7 204 -9 259 -47
158 -207 241 -376 194z m206 -21 c61 -24 102 -65 135 -132 30 -60 33 -76 37
-177 l3 -110 -49 51 c-115 120 -247 149 -412 93 -115 -40 -225 -134 -314 -269
l-50 -75 7 78 c14 185 105 348 251 453 142 101 283 133 392 88z"/>
<path d="M10425 11637 c-55 -22 -102 -56 -128 -94 -48 -69 -60 -119 -61 -240
0 -62 3 -115 6 -119 4 -3 32 21 63 54 72 78 141 113 234 120 179 12 365 -110
491 -322 25 -41 47 -76 50 -76 11 0 -9 200 -25 256 -49 171 -162 301 -333 387
-78 38 -91 41 -175 44 -56 2 -104 -2 -122 -10z m292 -47 c118 -57 233 -169
286 -280 36 -75 67 -197 67 -267 l0 -37 -46 69 c-130 200 -302 303 -487 293
-100 -6 -147 -27 -229 -106 l-58 -55 -1 49 c-6 195 44 303 166 361 44 21 60
24 132 20 71 -4 94 -10 170 -47z"/>
<path d="M17951 11304 c-101 -15 -130 -28 -173 -79 -37 -43 -63 -49 -83 -19
-28 43 -91 23 -83 -27 5 -36 27 -43 93 -29 48 10 65 19 94 52 47 52 58 57 157
73 46 8 96 21 111 29 l28 15 -25 -1 c-14 0 -67 -7 -119 -14z m-273 -96 c18
-18 15 -36 -7 -48 -28 -14 -55 13 -41 41 12 22 30 25 48 7z"/>
<path d="M4380 11263 c0 -12 55 -30 115 -38 95 -12 109 -18 160 -66 43 -40 62
-51 108 -60 44 -9 60 -9 72 1 19 16 19 54 0 70 -20 17 -62 5 -70 -20 -9 -29
-42 -18 -85 31 -41 46 -69 57 -169 69 -42 6 -88 12 -103 16 -16 3 -28 2 -28
-3z m457 -119 c8 -21 -19 -46 -40 -38 -17 6 -23 35 -10 47 12 13 44 7 50 -9z"/>
<path d="M9795 9769 c-3674 -9 -6812 -18 -6974 -18 -162 -1 -292 -4 -289 -7 7
-6 17441 35 17447 42 7 7 -3188 2 -10184 -17z"/>
<path d="M1500 9762 c0 -5 14 -21 30 -37 l30 -29 -30 -31 -30 -31 30 -29 30
-29 -32 -33 -32 -33 32 -33 32 -33 -30 -29 -30 -29 30 -31 30 -31 -30 -29 -30
-29 30 -31 30 -31 -30 -29 -30 -29 32 -33 32 -33 -32 -33 -32 -33 30 -30 30
-30 -30 -29 -30 -29 30 -31 30 -31 -30 -29 -30 -29 32 -33 32 -33 -32 -33 -32
-33 30 -29 30 -29 -30 -31 -30 -31 30 -29 30 -29 -30 -31 -30 -31 32 -32 32
-32 -32 -33 -32 -33 30 -29 30 -29 -30 -31 -30 -31 30 -29 30 -29 -30 -31 -30
-31 32 -32 32 -32 -32 -33 -32 -33 30 -29 30 -29 -30 -31 -30 -31 30 -29 30
-29 -30 -31 -30 -31 30 -29 30 -29 -25 -26 c-36 -37 -32 -60 4 -26 l29 28 5
-28 c2 -16 5 474 6 1089 1 986 3 1117 16 1117 13 0 15 -129 15 -1105 0 -730
-3 -1105 -10 -1105 -5 0 -10 -3 -10 -7 0 -5 13 -8 30 -7 23 1 49 20 119 88
135 133 111 132 236 14 83 -79 113 -101 136 -102 l29 -1 0 1118 0 1117 -320 0
c-176 0 -320 -4 -320 -8z m70 -27 c0 -14 -1 -25 -3 -25 -2 0 -14 11 -27 25
l-23 25 26 0 c22 0 27 -5 27 -25z m405 -67 c-54 -51 -103 -93 -110 -93 -6 0
-56 42 -110 93 l-99 92 208 0 208 0 -97 -92z m152 -1565 c-1 -307 -2 -58 -2
552 0 611 1 862 2 558 2 -303 2 -803 0 -1110z m-324 1505 c7 2 9 0 4 -4 -4 -4
3 -18 15 -31 l22 -23 -40 -41 c-21 -22 -69 -68 -106 -101 l-68 -60 0 202 0
201 81 -73 c45 -40 86 -71 92 -70z m295 -160 l-3 -101 -105 100 -105 101 28
30 c16 17 30 34 30 39 1 4 4 7 7 6 3 -1 37 27 75 61 l70 63 3 -98 c1 -55 1
-145 0 -201z m-528 185 l0 -46 -25 23 -25 24 22 23 c12 13 23 23 25 23 2 0 3
-21 3 -47z m0 -125 l0 -42 -22 21 c-21 22 -21 23 -3 43 10 11 20 20 22 20 1 0
3 -19 3 -42z m362 -36 c14 -13 29 -24 32 -23 3 1 6 -2 6 -6 0 -5 24 -32 52
-60 l52 -53 -207 0 c-114 0 -207 3 -207 6 0 3 25 28 55 56 30 27 53 53 52 56
-1 4 0 7 3 7 4 0 26 17 50 37 48 42 40 43 112 -20z m-362 -89 l0 -46 -25 23
-25 24 22 23 c12 13 23 23 25 23 2 0 3 -21 3 -47z m402 -163 l-104 -100 -26
21 c-32 24 -182 169 -182 175 0 2 93 4 208 4 l207 -1 -103 -99z m-402 43 l0
-46 -25 23 -25 24 22 23 c12 13 23 23 25 23 2 0 3 -21 3 -47z m185 -64 c3 1 5
-2 4 -5 -1 -3 18 -26 42 -51 l44 -44 -104 -98 c-62 -57 -98 -98 -88 -98 10 0
61 42 115 92 l97 92 105 -99 104 -99 -220 3 -219 3 -3 204 -2 203 59 -51 c33
-29 62 -52 66 -52z m345 -100 l0 -200 -81 73 c-45 40 -85 72 -91 70 -5 -1 -7
1 -4 6 3 5 -5 19 -18 31 l-24 22 54 51 c30 28 51 56 47 62 -3 6 -3 8 2 4 4 -4
31 13 59 37 28 25 52 45 53 45 2 0 3 -90 3 -201z m-530 39 l0 -42 -22 21 c-21
22 -21 23 -3 43 10 11 20 20 22 20 1 0 3 -19 3 -42z m0 -120 l0 -42 -22 21
c-21 22 -21 23 -3 43 10 11 20 20 22 20 1 0 3 -19 3 -42z m0 -125 l0 -46 -25
23 -25 24 22 23 c12 13 23 23 25 23 2 0 3 -21 3 -47z m496 -32 c-3 -4 -50 -49
-104 -99 l-98 -91 -105 99 -104 99 208 0 c116 1 206 -3 203 -8z m34 -207 l0
-205 -110 103 -111 103 81 73 c44 41 77 79 73 84 -3 6 -2 8 4 5 6 -4 21 5 33
18 13 14 25 25 27 25 2 0 3 -93 3 -206z m-428 167 c18 -16 38 -30 43 -32 6 -2
9 -7 8 -11 -2 -4 26 -33 62 -65 l64 -58 -109 -103 -110 -104 0 201 c0 111 2
201 5 201 2 0 19 -13 37 -29z m-102 -53 l0 -42 -22 21 c-21 22 -21 23 -3 43
10 11 20 20 22 20 1 0 3 -19 3 -42z m0 -120 l0 -42 -22 21 c-21 22 -21 23 -3
43 10 11 20 20 22 20 1 0 3 -19 3 -42z m314 -19 c-6 -11 155 -155 169 -151 7
2 9 0 5 -4 -4 -4 -3 -13 3 -21 10 -11 -24 -13 -197 -13 l-207 0 21 23 c11 12
22 27 24 32 2 6 6 9 9 8 3 -1 39 29 79 66 41 37 80 68 87 68 7 0 10 -4 7 -8z
m-314 -106 l0 -46 -25 23 -25 24 22 23 c12 13 23 23 25 23 2 0 3 -21 3 -47z
m0 -125 l0 -42 -22 21 c-21 22 -21 23 -3 43 10 11 20 20 22 20 1 0 3 -19 3
-42z m497 8 c0 -8 -4 -14 -8 -13 -15 4 -199 -174 -193 -185 4 -7 2 -8 -4 -4
-7 4 -50 -29 -104 -81 -51 -49 -101 -95 -110 -102 -17 -13 -18 -2 -18 189 l0
202 107 -101 c58 -55 111 -97 116 -94 6 4 -36 50 -94 104 l-104 98 206 1 c173
0 206 -2 206 -14z m29 -394 c-9 -8 -214 193 -208 203 4 6 7 15 7 20 1 6 6 9
12 8 5 -1 50 35 99 81 l89 83 3 -195 c1 -107 0 -197 -2 -200z m-526 266 l0
-42 -22 21 c-21 22 -21 23 -3 43 10 11 20 20 22 20 1 0 3 -19 3 -42z m0 -125
l0 -46 -25 23 -25 24 22 23 c12 13 23 23 25 23 2 0 3 -21 3 -47z m441 -88 c5
0 9 -4 8 -8 -1 -5 12 -22 27 -38 l28 -29 -209 0 -209 0 42 43 c23 24 39 47 35
52 -5 4 -3 6 2 3 6 -3 37 18 69 47 l60 53 68 -62 c38 -33 73 -61 79 -61z
m-441 -37 l0 -42 -22 21 c-21 22 -21 23 -3 43 10 11 20 20 22 20 1 0 3 -19 3
-42z m399 -157 l-104 -98 -99 93 c-55 51 -104 90 -110 87 -5 -4 35 -48 90 -99
l99 -93 -43 -43 c-23 -25 -41 -46 -40 -49 2 -2 1 -3 -1 -2 -2 1 -32 -23 -67
-54 l-64 -55 0 201 c0 122 4 200 9 196 5 -3 12 -1 16 5 4 6 83 10 212 10 l206
0 -104 -99z m129 -211 l-3 -100 -50 43 c-27 23 -51 42 -55 42 -3 0 -4 3 -3 7
1 3 -22 29 -52 56 l-54 50 24 22 c13 13 23 28 22 34 -1 6 3 10 9 9 5 -1 44 29
85 66 l74 68 3 -98 c1 -55 1 -144 0 -199z m-528 248 l0 -42 -22 21 c-21 22
-21 23 -3 43 10 11 20 20 22 20 1 0 3 -19 3 -42z m0 -125 l0 -46 -25 23 -25
24 22 23 c12 13 23 23 25 23 2 0 3 -21 3 -47z m0 -125 l0 -42 -22 21 c-21 22
-21 23 -3 43 10 11 20 20 22 20 1 0 3 -19 3 -42z"/>
<path d="M2151 8648 c1 -618 4 -1110 8 -1095 l6 29 24 -26 c14 -14 28 -26 33
-26 4 0 8 504 8 1120 l0 1120 -40 0 -40 0 1 -1122z m49 1109 c0 -2 -9 -12 -20
-22 -19 -18 -20 -17 -20 3 0 15 6 22 20 22 11 0 20 -2 20 -3z m20 -64 l0 -46
-25 23 -25 24 22 23 c12 13 23 23 25 23 2 0 3 -21 3 -47z m-32 -36 l22 -23
-25 -24 -25 -23 0 46 c0 26 1 47 3 47 2 0 13 -10 25 -23z m32 -84 l0 -46 -25
23 -25 24 22 23 c12 13 23 23 25 23 2 0 3 -21 3 -47z m-38 -85 l-22 -22 0 44
0 44 22 -22 22 -22 -22 -22z m38 -40 l0 -53 -27 27 -27 27 24 26 c13 14 25 25
27 25 2 0 3 -24 3 -52z m-38 -80 l-22 -22 0 44 0 44 22 -22 22 -22 -22 -22z
m38 -45 l0 -46 -25 23 -25 24 22 23 c12 13 23 23 25 23 2 0 3 -21 3 -47z m-32
-36 l22 -23 -25 -24 -25 -23 0 46 c0 26 1 47 3 47 2 0 13 -10 25 -23z m32 -84
l0 -46 -25 23 -25 24 22 23 c12 13 23 23 25 23 2 0 3 -21 3 -47z m-38 -85
l-22 -22 0 44 0 44 22 -22 22 -22 -22 -22z m38 -40 l0 -53 -27 27 -27 27 24
26 c13 14 25 25 27 25 2 0 3 -24 3 -52z m-38 -80 l-22 -22 0 44 0 44 22 -22
22 -22 -22 -22z m38 -45 l0 -46 -25 23 -25 24 22 23 c12 13 23 23 25 23 2 0 3
-21 3 -47z m-32 -36 l22 -23 -25 -24 -25 -23 0 46 c0 26 1 47 3 47 2 0 13 -10
25 -23z m32 -84 l0 -46 -25 23 -25 24 22 23 c12 13 23 23 25 23 2 0 3 -21 3
-47z m-38 -85 l-22 -22 0 44 0 44 22 -22 22 -22 -22 -22z m38 -40 l0 -53 -27
27 -27 27 24 26 c13 14 25 25 27 25 2 0 3 -24 3 -52z m-38 -80 l-22 -22 0 44
0 44 22 -22 22 -22 -22 -22z m38 -45 l0 -46 -25 23 -25 24 22 23 c12 13 23 23
25 23 2 0 3 -21 3 -47z m-32 -36 l22 -23 -25 -24 -25 -23 0 46 c0 26 1 47 3
47 2 0 13 -10 25 -23z m32 -84 l0 -46 -25 23 -25 24 22 23 c12 13 23 23 25 23
2 0 3 -21 3 -47z m-38 -85 l-22 -22 0 44 0 44 22 -22 22 -22 -22 -22z m38 -40
l0 -53 -27 27 -27 27 24 26 c13 14 25 25 27 25 2 0 3 -24 3 -52z m-38 -80
l-22 -22 0 44 0 44 22 -22 22 -22 -22 -22z m38 -45 l0 -46 -25 23 -25 24 22
23 c12 13 23 23 25 23 2 0 3 -21 3 -47z m-32 -36 l22 -23 -25 -24 -25 -23 0
46 c0 26 1 47 3 47 2 0 13 -10 25 -23z m32 -84 l0 -46 -25 23 -25 24 22 23
c12 13 23 23 25 23 2 0 3 -21 3 -47z m-38 -85 l-22 -22 0 44 0 44 22 -22 22
-22 -22 -22z m38 -40 l0 -53 -27 27 -27 27 24 26 c13 14 25 25 27 25 2 0 3
-24 3 -52z m-38 -80 l-22 -22 0 44 0 44 22 -22 22 -22 -22 -22z m38 -45 l0
-46 -25 23 -25 24 22 23 c12 13 23 23 25 23 2 0 3 -21 3 -47z m-32 -36 l22
-23 -25 -24 -25 -23 0 46 c0 26 1 47 3 47 2 0 13 -10 25 -23z m32 -84 l0 -46
-25 23 -25 24 22 23 c12 13 23 23 25 23 2 0 3 -21 3 -47z m-38 -85 l-22 -22 0
44 0 44 22 -22 22 -22 -22 -22z m38 -40 l0 -53 -27 27 -27 27 24 26 c13 14 25
25 27 25 2 0 3 -24 3 -52z"/>
<path d="M20270 8656 c0 -613 4 -1117 9 -1120 4 -3 19 6 32 20 l24 26 6 -29
c4 -15 7 477 8 1095 l1 1122 -40 0 -40 0 0 -1114z m70 1084 c0 -11 -2 -20 -3
-20 -2 0 -12 9 -22 20 -18 19 -17 20 3 20 15 0 22 -6 22 -20z m-32 -23 l22
-23 -25 -24 -25 -23 0 46 c0 26 1 47 3 47 2 0 13 -10 25 -23z m32 -84 l0 -46
-25 23 -25 24 22 23 c12 13 23 23 25 23 2 0 3 -21 3 -47z m-32 -36 l22 -23
-25 -24 -25 -23 0 46 c0 26 1 47 3 47 2 0 13 -10 25 -23z m32 -89 l0 -42 -22
21 c-21 22 -21 23 -3 43 10 11 20 20 22 20 1 0 3 -19 3 -42z m-33 -85 l-27
-28 0 55 0 55 27 -28 28 -27 -28 -27z m33 -35 l0 -42 -22 21 c-21 22 -21 23
-3 43 10 11 20 20 22 20 1 0 3 -19 3 -42z m-32 -41 l22 -23 -25 -24 -25 -23 0
46 c0 26 1 47 3 47 2 0 13 -10 25 -23z m32 -84 l0 -46 -25 23 -25 24 22 23
c12 13 23 23 25 23 2 0 3 -21 3 -47z m-32 -36 l22 -23 -25 -24 -25 -23 0 46
c0 26 1 47 3 47 2 0 13 -10 25 -23z m32 -89 l0 -42 -22 21 c-21 22 -21 23 -3
43 10 11 20 20 22 20 1 0 3 -19 3 -42z m-33 -85 l-27 -28 0 55 0 55 27 -28 28
-27 -28 -27z m33 -35 l0 -42 -22 21 c-21 22 -21 23 -3 43 10 11 20 20 22 20 1
0 3 -19 3 -42z m-32 -41 l22 -23 -25 -24 -25 -23 0 46 c0 26 1 47 3 47 2 0 13
-10 25 -23z m32 -84 l0 -46 -25 23 -25 24 22 23 c12 13 23 23 25 23 2 0 3 -21
3 -47z m-32 -36 l22 -23 -25 -24 -25 -23 0 46 c0 26 1 47 3 47 2 0 13 -10 25
-23z m32 -89 l0 -42 -22 21 c-21 22 -21 23 -3 43 10 11 20 20 22 20 1 0 3 -19
3 -42z m-33 -85 l-27 -28 0 55 0 55 27 -28 28 -27 -28 -27z m33 -35 l0 -42
-22 21 c-21 22 -21 23 -3 43 10 11 20 20 22 20 1 0 3 -19 3 -42z m-32 -41 l22
-23 -25 -24 -25 -23 0 46 c0 26 1 47 3 47 2 0 13 -10 25 -23z m32 -84 l0 -46
-25 23 -25 24 22 23 c12 13 23 23 25 23 2 0 3 -21 3 -47z m-32 -36 l22 -23
-25 -24 -25 -23 0 46 c0 26 1 47 3 47 2 0 13 -10 25 -23z m32 -89 l0 -42 -22
21 c-21 22 -21 23 -3 43 10 11 20 20 22 20 1 0 3 -19 3 -42z m-33 -85 l-27
-28 0 55 0 55 27 -28 28 -27 -28 -27z m33 -35 l0 -42 -22 21 c-21 22 -21 23
-3 43 10 11 20 20 22 20 1 0 3 -19 3 -42z m-32 -41 l22 -23 -25 -24 -25 -23 0
46 c0 26 1 47 3 47 2 0 13 -10 25 -23z m32 -84 l0 -46 -25 23 -25 24 22 23
c12 13 23 23 25 23 2 0 3 -21 3 -47z m-32 -36 l22 -23 -25 -24 -25 -23 0 46
c0 26 1 47 3 47 2 0 13 -10 25 -23z m32 -89 l0 -42 -22 21 c-21 22 -21 23 -3
43 10 11 20 20 22 20 1 0 3 -19 3 -42z m-33 -85 l-27 -28 0 55 0 55 27 -28 28
-27 -28 -27z m33 -35 l0 -42 -22 21 c-21 22 -21 23 -3 43 10 11 20 20 22 20 1
0 3 -19 3 -42z m-32 -41 l22 -23 -25 -24 -25 -23 0 46 c0 26 1 47 3 47 2 0 13
-10 25 -23z m32 -84 l0 -46 -25 23 -25 24 22 23 c12 13 23 23 25 23 2 0 3 -21
3 -47z m-32 -36 l22 -23 -25 -24 -25 -23 0 46 c0 26 1 47 3 47 2 0 13 -10 25
-23z m32 -89 l0 -42 -22 21 c-21 22 -21 23 -3 43 10 11 20 20 22 20 1 0 3 -19
3 -42z m-33 -85 l-27 -28 0 55 0 55 27 -28 28 -27 -28 -27z"/>
<path d="M20360 8653 l0 -1118 31 1 c24 1 48 18 112 80 45 44 94 90 109 103
l26 23 106 -103 c85 -81 113 -102 136 -103 17 -1 30 2 30 7 0 4 -4 7 -10 7
-16 0 -14 2207 3 2213 6 3 -113 6 -265 6 l-278 1 0 -1117z m17 -550 c-1 -307
-2 -58 -2 552 0 611 1 862 2 558 2 -303 2 -803 0 -1110z m368 1565 c-54 -51
-104 -93 -110 -93 -7 0 -56 42 -110 93 l-97 92 208 0 208 0 -99 -92z m-194
-43 c5 0 9 -4 8 -8 -1 -5 12 -22 27 -38 l28 -29 -59 -61 c-33 -33 -81 -79
-107 -101 l-48 -40 0 202 0 201 71 -63 c38 -35 74 -63 80 -63z m317 -175 l-3
-101 -105 99 -105 100 23 24 c12 14 19 28 15 33 -5 4 -3 6 2 2 6 -3 47 27 90
67 l80 73 3 -98 c1 -55 1 -144 0 -199z m-176 32 c14 -13 30 -24 35 -24 4 0 7
-4 6 -8 -1 -5 22 -31 52 -58 30 -28 55 -53 55 -56 0 -3 -93 -6 -207 -6 l-207
0 52 53 c28 28 52 55 52 60 0 4 1 6 3 5 2 -2 25 16 52 39 53 45 51 45 107 -5z
m148 -166 c0 -6 -150 -151 -182 -175 l-26 -21 -104 100 -103 99 208 1 c114 0
207 -2 207 -4z m-350 -91 c7 -8 17 -12 23 -8 5 3 7 1 4 -4 -4 -6 17 -33 47
-61 l53 -50 -56 -54 c-31 -29 -80 -75 -108 -103 l-53 -49 0 203 0 203 38 -31
c22 -17 45 -37 52 -46z m376 -321 c-4 -9 -62 -13 -223 -13 l-218 -1 78 71 c42
39 74 76 71 81 -4 6 -3 8 3 5 6 -4 20 5 33 18 l23 24 98 -93 c54 -51 106 -93
116 -93 10 0 -26 41 -88 98 l-104 98 44 44 c24 25 44 49 45 53 0 5 3 8 6 7 3
-1 30 20 60 47 l55 48 3 -191 c1 -105 0 -197 -2 -203z m-126 -134 l-104 -98
-86 78 c-47 43 -94 87 -104 99 l-19 21 209 0 209 -1 -105 -99z m-300 55 c12
-13 27 -22 33 -18 6 3 7 1 3 -5 -7 -12 137 -147 159 -147 19 0 155 123 152
138 -1 7 3 11 9 10 6 -1 22 9 34 22 13 14 27 25 32 25 4 0 8 -90 8 -201 l0
-201 -107 101 c-58 55 -111 97 -116 94 -6 -4 36 -50 94 -104 l104 -98 -210 0
-210 0 104 98 c58 54 100 100 94 104 -5 3 -58 -39 -116 -94 l-107 -101 0 201
c0 111 4 201 8 201 5 0 19 -11 32 -25z m300 -504 l-105 -98 -102 95 c-57 52
-103 97 -103 99 0 1 93 3 208 3 l207 -1 -105 -98z m-295 66 c4 5 5 3 1 -4 -7
-13 136 -148 157 -148 31 0 4 -39 -90 -128 -56 -53 -105 -97 -108 -97 -3 0 -5
91 -5 202 0 194 1 201 18 185 10 -10 22 -14 27 -10z m423 -279 l-3 -103 -105
100 c-92 88 -126 129 -100 122 14 -4 170 144 164 155 -4 6 -2 8 3 5 6 -4 17 1
24 10 12 14 14 2 17 -85 1 -56 1 -148 0 -204z m-94 -33 c3 3 4 2 1 -2 -3 -4
11 -24 32 -45 l37 -38 -209 0 -209 0 32 33 c17 17 32 37 34 42 2 6 5 9 8 8 3
-1 35 25 70 57 l65 58 66 -59 c36 -32 69 -56 73 -54z m-358 -114 c-3 -5 41
-52 98 -105 l104 -97 -48 -45 c-27 -26 -48 -51 -47 -57 1 -6 -3 -11 -9 -12 -5
0 -34 -20 -62 -43 l-52 -44 0 199 c0 110 3 203 7 206 9 10 15 9 9 -2z m324
-90 l-105 -99 -23 22 c-13 11 -27 20 -30 19 -4 -2 -7 2 -7 8 0 6 -34 42 -75
80 l-75 69 210 0 209 0 -104 -99z m128 -114 l-3 -196 -55 48 c-30 27 -59 46
-65 43 -5 -3 -7 -1 -2 3 4 5 -14 30 -40 57 -44 45 -46 48 -30 66 9 10 14 22
10 26 -5 4 -3 6 4 4 17 -5 174 141 167 155 -5 9 -4 9 5 1 8 -7 11 -67 9 -207z"/>
<path d="M20921 8648 c1 -618 4 -1110 8 -1095 l6 29 24 -26 c14 -14 28 -26 33
-26 4 0 8 504 8 1120 l0 1120 -40 0 -40 0 1 -1122z m59 1109 c0 -2 -11 -14
-25 -27 l-25 -23 0 26 c0 22 5 27 25 27 14 0 25 -1 25 -3z m10 -64 l0 -46 -25
23 -25 24 22 23 c12 13 23 23 25 23 2 0 3 -21 3 -47z m-32 -36 l22 -23 -25
-24 -25 -23 0 46 c0 26 1 47 3 47 2 0 13 -10 25 -23z m32 -84 l0 -46 -25 23
-25 24 22 23 c12 13 23 23 25 23 2 0 3 -21 3 -47z m-38 -85 l-22 -22 0 44 0
44 22 -22 22 -22 -22 -22z m38 -45 l0 -46 -25 23 -25 24 22 23 c12 13 23 23
25 23 2 0 3 -21 3 -47z m-32 -36 l22 -23 -25 -24 -25 -23 0 46 c0 26 1 47 3
47 2 0 13 -10 25 -23z m32 -84 l0 -46 -25 23 -25 24 22 23 c12 13 23 23 25 23
2 0 3 -21 3 -47z m-32 -36 l22 -23 -25 -24 -25 -23 0 46 c0 26 1 47 3 47 2 0
13 -10 25 -23z m32 -84 l0 -46 -25 23 -25 24 22 23 c12 13 23 23 25 23 2 0 3
-21 3 -47z m-38 -85 l-22 -22 0 44 0 44 22 -22 22 -22 -22 -22z m38 -40 l0
-53 -27 27 -27 27 24 26 c13 14 25 25 27 25 2 0 3 -24 3 -52z m-38 -80 l-22
-22 0 44 0 44 22 -22 22 -22 -22 -22z m38 -45 l0 -46 -25 23 -25 24 22 23 c12
13 23 23 25 23 2 0 3 -21 3 -47z m-32 -36 l22 -23 -25 -24 -25 -23 0 46 c0 26
1 47 3 47 2 0 13 -10 25 -23z m32 -84 l0 -46 -25 23 -25 24 22 23 c12 13 23
23 25 23 2 0 3 -21 3 -47z m-38 -85 l-22 -22 0 44 0 44 22 -22 22 -22 -22 -22z
m38 -40 l0 -53 -27 27 -27 27 24 26 c13 14 25 25 27 25 2 0 3 -24 3 -52z m-38
-80 l-22 -22 0 44 0 44 22 -22 22 -22 -22 -22z m38 -45 l0 -46 -25 23 -25 24
22 23 c12 13 23 23 25 23 2 0 3 -21 3 -47z m-32 -36 l22 -23 -25 -24 -25 -23
0 46 c0 26 1 47 3 47 2 0 13 -10 25 -23z m32 -84 l0 -46 -25 23 -25 24 22 23
c12 13 23 23 25 23 2 0 3 -21 3 -47z m-38 -85 l-22 -22 0 44 0 44 22 -22 22
-22 -22 -22z m38 -40 l0 -53 -27 27 -27 27 24 26 c13 14 25 25 27 25 2 0 3
-24 3 -52z m-38 -80 l-22 -22 0 44 0 44 22 -22 22 -22 -22 -22z m38 -45 l0
-46 -25 23 -25 24 22 23 c12 13 23 23 25 23 2 0 3 -21 3 -47z m-32 -36 l22
-23 -25 -24 -25 -23 0 46 c0 26 1 47 3 47 2 0 13 -10 25 -23z m32 -84 l0 -46
-25 23 -25 24 22 23 c12 13 23 23 25 23 2 0 3 -21 3 -47z m-38 -85 l-22 -22 0
44 0 44 22 -22 22 -22 -22 -22z m38 -40 l0 -53 -27 27 -27 27 24 26 c13 14 25
25 27 25 2 0 3 -24 3 -52z m-38 -80 l-22 -22 0 44 0 44 22 -22 22 -22 -22 -22z
m38 -45 l0 -46 -25 23 -25 24 22 23 c12 13 23 23 25 23 2 0 3 -21 3 -47z m-32
-36 l22 -23 -25 -24 -25 -23 0 46 c0 26 1 47 3 47 2 0 13 -10 25 -23z m32 -84
l0 -46 -25 23 -25 24 22 23 c12 13 23 23 25 23 2 0 3 -21 3 -47z m-38 -85
l-22 -22 0 44 0 44 22 -22 22 -22 -22 -22z m38 -35 l0 -46 -25 23 -25 24 22
23 c12 13 23 23 25 23 2 0 3 -21 3 -47z"/>
<path d="M12780 9273 c69 -12 89 -24 100 -61 6 -22 10 -172 10 -362 0 -430 14
-497 126 -607 74 -71 138 -95 276 -101 89 -3 119 -1 175 17 92 28 168 89 211
168 58 109 64 159 66 543 1 252 4 351 13 366 7 12 30 26 50 32 30 8 6 10 -112
10 -113 0 -139 -2 -105 -9 87 -17 85 -8 88 -353 5 -414 -10 -520 -87 -622 -25
-33 -56 -59 -96 -79 -54 -28 -67 -30 -159 -30 -124 0 -182 22 -251 96 -95 101
-104 155 -108 590 -2 389 -4 377 71 397 28 8 -3 10 -128 10 -91 -1 -154 -3
-140 -5z"/>
<path d="M3024 9251 c4 -6 23 -11 42 -11 21 0 42 -8 54 -20 20 -20 21 -29 18
-531 -3 -492 -4 -511 -22 -525 -11 -8 -32 -14 -48 -14 -15 0 -28 -4 -28 -8 0
-9 177 -15 445 -16 141 -1 169 2 235 22 161 51 271 142 339 284 51 107 65 181
59 315 -6 126 -27 191 -92 286 -67 98 -174 168 -310 204 -76 20 -703 33 -692
14z m562 -46 c183 -32 316 -126 387 -275 43 -91 57 -156 57 -258 -1 -198 -92
-371 -235 -444 -82 -43 -150 -60 -255 -65 -131 -7 -240 10 -278 42 l-27 23 -3
486 -3 486 23 10 c37 14 238 11 334 -5z"/>
<path d="M18497 9143 c-4 -7 -28 -214 -53 -460 -30 -303 -49 -455 -59 -469 -8
-12 -31 -26 -52 -32 -31 -8 -14 -10 95 -11 87 -1 131 3 127 9 -3 6 -19 10 -34
10 -39 0 -51 17 -51 75 0 44 46 625 53 665 1 8 17 -19 36 -60 19 -41 103 -217
188 -389 132 -272 155 -313 167 -300 8 7 95 182 193 388 157 329 179 371 185
345 4 -16 19 -181 33 -368 22 -277 24 -340 14 -347 -8 -4 -11 -10 -8 -13 2 -3
62 -8 133 -12 97 -5 127 -4 122 4 -4 7 -21 12 -37 12 -56 0 -97 25 -109 67 -6
21 -29 229 -53 463 -23 234 -46 425 -51 425 -5 0 -98 -186 -207 -414 -110
-228 -201 -416 -203 -418 -2 -2 -98 186 -213 419 -122 246 -212 418 -216 411z"/>
<path d="M15270 9130 c-254 -47 -425 -269 -407 -525 22 -304 264 -497 570
-455 212 29 361 156 421 359 23 79 21 231 -4 314 -41 134 -154 243 -299 288
-74 23 -212 32 -281 19z m243 -59 c110 -43 191 -128 238 -250 28 -70 37 -237
19 -320 -43 -193 -189 -313 -380 -312 -233 0 -397 153 -432 403 -28 195 53
387 192 458 107 54 253 63 363 21z"/>
<path d="M16450 9125 c-254 -58 -410 -286 -372 -548 31 -212 179 -366 397
-412 82 -17 266 -20 351 -4 91 16 99 25 117 121 17 90 7 129 -12 52 -15 -60
-63 -107 -125 -123 -67 -16 -232 -14 -297 5 -173 51 -294 176 -334 346 -50
212 33 418 198 496 68 32 157 45 265 39 119 -6 193 -28 239 -71 30 -27 36 -41
41 -84 7 -79 22 -62 24 28 1 44 2 92 2 107 1 26 -3 28 -69 40 -114 21 -349 25
-425 8z"/>
<path d="M17490 9126 c-74 -22 -100 -35 -159 -76 -126 -89 -201 -239 -201
-405 0 -148 44 -258 140 -356 91 -92 210 -139 355 -139 228 0 410 126 486 335
33 89 33 276 0 357 -50 127 -149 224 -272 268 -80 28 -278 37 -349 16z m277
-46 c212 -73 324 -312 268 -573 -55 -262 -321 -389 -573 -272 -65 30 -152 115
-186 183 -72 143 -75 357 -5 493 81 160 303 235 496 169z"/>
<path d="M10364 9121 c-174 -28 -307 -124 -378 -275 -38 -79 -49 -147 -44
-255 11 -209 126 -365 319 -432 91 -32 257 -32 348 0 169 59 284 187 326 363
63 270 -71 510 -325 582 -70 19 -180 27 -246 17z m171 -46 c198 -52 324 -227
325 -451 0 -241 -124 -408 -331 -444 -174 -30 -367 67 -443 222 -78 162 -75
370 7 511 80 136 272 206 442 162z"/>
<path d="M5685 9078 c-3 -24 -24 -227 -46 -453 -22 -225 -45 -420 -52 -434 -8
-16 -26 -30 -52 -37 -36 -11 -25 -12 95 -12 115 0 130 2 100 12 -57 18 -60 23
-60 89 0 72 48 658 54 664 2 3 7 -5 11 -18 10 -30 332 -698 351 -728 10 -15
19 -20 25 -14 10 10 340 691 360 742 5 13 12 22 14 19 3 -3 19 -166 35 -363
22 -267 27 -362 18 -372 -6 -7 -9 -16 -6 -18 2 -2 62 -8 133 -11 96 -6 126 -4
121 4 -4 7 -22 12 -41 12 -50 0 -82 16 -99 48 -9 18 -28 170 -56 448 -44 455
-47 471 -60 458 -5 -5 -98 -194 -206 -419 -108 -226 -198 -412 -200 -414 -2
-2 -96 183 -208 411 -112 229 -209 418 -214 422 -7 4 -13 -11 -17 -36z"/>
<path d="M14030 9108 c0 -4 14 -8 30 -8 17 0 39 -9 50 -20 19 -19 20 -33 20
-434 0 -232 -4 -425 -9 -439 -7 -17 -22 -28 -48 -35 -29 -8 12 -10 177 -9 196
2 219 4 261 23 57 27 115 84 140 138 23 50 25 152 5 201 -22 51 -90 119 -146
146 -28 13 -50 26 -50 29 0 4 14 19 31 36 45 42 71 100 76 169 7 87 -23 139
-102 180 l-58 30 -189 1 c-103 1 -188 -3 -188 -8z m325 -29 c80 -22 135 -102
135 -199 0 -61 -24 -124 -60 -155 -29 -26 -189 -36 -208 -12 -9 11 -12 63 -10
188 l3 173 25 7 c38 11 71 10 115 -2z m81 -437 c57 -29 118 -102 135 -159 20
-68 16 -154 -8 -195 -39 -67 -128 -104 -224 -94 -63 6 -105 22 -113 42 -4 10
-10 382 -7 428 1 5 40 6 89 4 63 -3 98 -10 128 -26z"/>
<path d="M4690 9096 c-167 -46 -279 -153 -338 -320 -34 -95 -35 -231 -3 -325
86 -252 332 -379 611 -315 247 56 411 310 372 577 -28 192 -155 331 -347 382
-71 18 -231 19 -295 1z m250 -38 c133 -40 233 -138 279 -275 40 -121 36 -264
-11 -390 -30 -81 -121 -171 -203 -202 -201 -76 -426 4 -523 187 -52 98 -65
160 -60 293 4 111 6 121 41 193 43 86 94 136 177 173 87 40 209 48 300 21z"/>
<path d="M7177 9102 c-166 -1 -256 -6 -252 -12 3 -6 19 -10 34 -10 15 0 36 -6
47 -14 18 -14 19 -32 22 -393 2 -208 0 -402 -3 -431 -7 -58 -25 -82 -61 -82
-13 0 -24 -4 -24 -8 0 -5 115 -10 255 -11 l255 -2 9 24 c16 42 24 137 12 137
-6 0 -11 -11 -11 -25 0 -14 -13 -39 -29 -57 l-29 -33 -121 0 c-172 0 -164 -11
-169 245 l-4 200 119 0 c133 0 149 -6 169 -61 l12 -34 2 40 c0 22 5 60 10 85
10 53 7 59 -20 35 -17 -15 -39 -18 -152 -19 l-133 -1 0 190 0 190 130 -3 c117
-3 132 -5 148 -24 9 -11 17 -31 17 -44 0 -12 4 -25 9 -28 4 -3 11 29 15 70 4
42 6 77 4 78 -2 0 -119 0 -261 -2z"/>
<path d="M9153 9098 c-2 -5 9 -8 25 -8 17 0 40 -9 53 -19 l24 -19 0 -425 c0
-463 2 -449 -59 -466 -22 -7 13 -9 119 -9 125 0 142 2 102 10 -31 7 -52 18
-60 32 -9 16 -12 129 -12 446 l0 425 82 3 c66 2 90 -1 121 -17 56 -29 108 -92
126 -152 20 -65 20 -73 0 -138 -27 -93 -125 -161 -231 -161 -18 0 -33 -4 -33
-10 0 -15 80 -12 140 6 138 41 210 134 210 271 0 112 -47 181 -151 219 -35 13
-87 17 -247 18 -112 0 -206 -2 -209 -6z"/>
<path d="M11145 9100 c3 -5 21 -10 39 -10 18 0 41 -6 52 -14 18 -14 19 -31 22
-363 5 -492 -1 -543 -63 -543 -13 0 -26 -4 -29 -9 -6 -9 166 -16 409 -15 95 0
146 5 190 18 225 67 355 241 355 477 0 243 -139 407 -384 454 -93 18 -602 22
-591 5z m586 -58 c134 -44 240 -152 281 -285 17 -57 20 -87 16 -177 -4 -101
-7 -114 -42 -184 -77 -157 -216 -224 -442 -214 -139 6 -179 22 -193 75 -16 58
-15 785 2 802 21 22 296 9 378 -17z"/>
<path d="M7722 9086 c20 -6 43 -17 50 -24 10 -10 14 -93 16 -360 5 -491 -1
-542 -64 -542 -13 0 -24 -4 -24 -8 0 -5 65 -9 145 -9 80 0 145 3 145 8 0 5
-15 9 -34 9 -19 0 -44 9 -57 19 l-24 19 -3 414 c-2 227 1 424 6 438 6 16 22
28 48 36 35 11 23 12 -101 12 -121 0 -135 -2 -103 -12z"/>
<path d="M8256 9090 c12 -5 25 -13 28 -19 9 -14 -88 -120 -255 -279 -79 -75
-146 -140 -147 -144 -5 -12 228 -258 347 -365 57 -52 121 -103 143 -114 44
-23 230 -40 241 -22 4 6 -14 13 -44 16 -27 3 -72 18 -100 33 -50 28 -261 218
-422 381 l-88 89 148 140 c254 241 277 260 335 277 l53 15 -130 1 c-83 0 -122
-3 -109 -9z"/>
<path d="M9855 7549 c-3850 -10 -7070 -19 -7155 -21 -85 -2 55 -5 312 -6 723
-3 16971 38 16977 43 7 8 -2578 4 -10134 -16z"/>
<path d="M15935 6984 c-11 -8 -31 -14 -45 -13 -47 2 -44 -1 32 -45 98 -55 161
-102 220 -163 57 -59 81 -136 82 -263 0 -68 -4 -93 -21 -126 -21 -40 -77 -97
-105 -106 -7 -3 -10 -9 -6 -13 12 -13 105 25 147 61 55 48 64 66 70 153 l6 74
59 -109 c33 -60 73 -129 89 -153 41 -60 77 -178 77 -250 0 -46 -7 -72 -33
-125 -19 -36 -32 -68 -29 -71 9 -9 87 55 112 92 20 29 25 49 25 100 0 35 3 63
6 63 3 0 16 -12 30 -26 13 -14 63 -52 110 -84 83 -55 120 -75 290 -152 70 -33
149 -90 149 -108 0 -5 5 -21 11 -37 8 -22 12 -24 19 -13 14 22 12 57 -4 88
l-14 27 118 -3 c138 -4 202 7 291 50 35 17 70 32 78 34 8 2 25 5 38 9 42 10
102 -13 123 -48 11 -18 20 -40 20 -49 0 -29 17 -21 29 13 17 49 13 75 -14 107
-30 36 -70 47 -109 32 l-28 -10 32 37 c55 62 98 138 127 220 33 95 37 238 9
313 -24 62 -31 112 -31 205 0 94 28 165 90 234 21 23 35 44 31 48 -11 12 -119
-71 -151 -115 -27 -40 -30 -51 -30 -122 l0 -77 -48 43 c-69 62 -138 92 -237
105 -153 20 -206 53 -217 137 -9 64 -23 39 -23 -39 0 -73 19 -109 58 -109 9 0
-2 -10 -26 -21 -78 -39 -131 -123 -132 -210 l-1 -34 -14 25 c-8 14 -14 39 -15
57 0 45 -9 62 -41 78 -35 18 -61 10 -57 -19 2 -17 9 -21 36 -20 29 2 32 -1 32
-27 0 -41 24 -95 48 -108 11 -6 22 -18 26 -27 4 -9 -9 -3 -29 15 -53 46 -165
97 -165 74 0 -5 14 -32 30 -61 33 -57 101 -112 162 -133 21 -7 38 -16 38 -21
0 -11 -42 1 -51 14 -4 6 -96 27 -126 28 0 0 -20 16 -43 35 -30 25 -52 35 -76
35 -39 0 -55 -23 -32 -46 14 -15 48 -10 48 7 0 19 30 8 46 -16 17 -26 68 -45
121 -45 17 0 35 -4 38 -10 4 -6 -6 -10 -22 -10 -53 -1 -182 -78 -167 -101 10
-17 99 -9 169 16 20 7 20 7 0 -9 -11 -9 -42 -23 -69 -31 -61 -18 -86 -40 -86
-75 0 -33 40 -73 64 -64 25 10 17 49 -11 49 -12 0 -25 4 -29 8 -13 13 28 47
70 58 59 15 110 52 130 93 9 20 21 36 26 36 13 0 14 4 -20 -64 -25 -49 -30
-71 -30 -130 0 -74 7 -116 20 -116 15 0 61 101 74 162 l13 63 7 -47 c5 -25 5
-59 2 -75 -14 -64 32 -115 87 -94 31 12 37 45 10 56 -12 4 -24 -1 -34 -14 -26
-32 -38 -6 -37 74 1 69 -19 135 -42 135 -6 0 -10 12 -10 27 0 24 4 21 33 -27
17 -30 51 -69 74 -86 43 -33 129 -71 139 -61 6 6 -27 72 -53 104 -10 12 -34
34 -53 49 l-35 26 35 -7 c19 -4 51 -22 70 -40 60 -56 108 -58 136 -3 19 37 12
60 -18 56 -18 -2 -23 -10 -23 -33 -1 -44 -25 -42 -79 4 -35 30 -57 42 -84 43
-20 1 -50 3 -67 4 -16 1 -36 3 -42 3 -7 1 -13 4 -13 9 0 4 29 8 64 8 45 1 79
9 117 27 64 30 117 72 106 83 -12 12 -116 8 -151 -5 -16 -7 -30 -10 -32 -9 -1
2 12 28 30 58 36 61 72 79 78 38 2 -17 9 -23 28 -23 40 0 33 36 -12 60 -47 25
-79 12 -109 -47 -23 -46 -63 -94 -91 -109 -15 -8 -15 -5 2 33 27 60 27 228 -1
228 -4 0 -23 -30 -41 -67 -30 -62 -33 -75 -32 -155 1 -49 0 -87 -1 -86 -21 35
-43 78 -36 74 5 -3 6 22 4 58 -3 38 0 78 7 101 17 51 76 114 127 137 53 23
156 34 203 20 22 -6 27 -11 14 -11 -39 -2 -94 -77 -94 -128 0 -13 7 -10 26 15
47 60 110 76 196 50 69 -20 151 -136 177 -249 13 -55 14 -144 1 -114 -26 64
-115 93 -179 57 -51 -28 -51 -42 2 -42 79 0 137 -58 151 -153 13 -82 -112
-251 -233 -315 -68 -37 -85 -41 -48 -12 36 29 77 116 77 165 0 46 -34 108 -62
113 -14 3 -15 -2 -7 -35 23 -100 4 -160 -73 -238 l-59 -60 -112 -3 c-93 -3
-128 1 -207 21 -52 14 -115 34 -140 45 l-45 21 41 0 c68 1 124 63 124 137 0
26 -1 26 -49 -19 -56 -52 -92 -63 -187 -54 -50 5 -75 13 -112 39 -64 44 -205
180 -259 250 l-43 57 42 -24 c82 -47 194 -29 259 42 28 29 69 92 69 105 0 5
-21 -9 -47 -29 -63 -48 -102 -63 -161 -63 -62 0 -118 20 -185 64 -42 29 -60
50 -95 116 -45 83 -42 98 11 54 27 -23 38 -25 81 -21 27 2 65 0 84 -5 23 -7
43 -6 62 2 29 12 99 85 125 130 34 59 37 70 31 95 l-7 26 -46 -51 c-68 -75
-130 -104 -224 -105 -118 0 -188 39 -369 210 -80 74 -147 135 -150 135 -3 0
-14 -7 -25 -16z m141 -109 c109 -102 183 -192 239 -287 37 -65 25 -61 -15 5
-81 131 -182 230 -327 320 -71 43 -71 44 -45 54 15 6 29 11 32 12 3 1 55 -46
116 -104z m1866 23 c-42 -61 -62 -128 -63 -211 l-1 -72 -19 40 c-39 83 -18
171 58 243 25 23 48 42 50 42 2 0 -9 -19 -25 -42z m-554 -63 l37 -25 -33 0
c-42 0 -72 30 -72 73 l1 32 15 -27 c8 -15 31 -39 52 -53z m-662 -114 c-9 -10
-16 -22 -16 -27 0 -5 -24 -35 -54 -68 -54 -57 -55 -58 -98 -52 -54 8 -65 8
-109 0 -28 -5 -41 -1 -65 19 -16 13 -38 27 -50 31 -11 3 -32 24 -46 45 l-26
40 61 -31 c46 -24 78 -32 133 -36 97 -6 159 15 227 78 36 34 53 44 55 33 2 -8
-3 -22 -12 -32z m934 24 c24 -14 24 -14 -20 -15 -27 0 -58 -8 -77 -20 -42 -25
-43 -10 -2 24 34 29 62 32 99 11z m-540 -63 c0 -13 -12 -22 -22 -16 -10 6 -1
24 13 24 5 0 9 -4 9 -8z m240 -92 c-1 -58 -35 -160 -57 -168 -10 -3 -13 15
-13 70 0 57 6 85 26 128 30 65 44 55 44 -30z m-1089 -4 c50 -105 34 -198 -47
-264 -58 -48 -81 -48 -40 0 44 51 60 118 53 217 -3 42 -9 87 -13 100 -13 45
17 12 47 -53z m824 -30 c19 -8 50 -27 69 -41 38 -29 92 -102 83 -112 -22 -21
-150 75 -182 136 -18 35 -17 36 30 17z m475 4 c0 -5 -4 -10 -10 -10 -5 0 -10
5 -10 10 0 6 5 10 10 10 6 0 10 -4 10 -10z m-1195 -80 c9 -16 13 -30 11 -30
-3 0 -12 14 -21 30 -9 17 -13 30 -11 30 3 0 12 -13 21 -30z m1542 -22 c-3 -8
-6 -5 -6 6 -1 11 2 17 5 13 3 -3 4 -12 1 -19z m-955 -3 c0 -5 -5 -11 -11 -13
-6 -2 -11 4 -11 13 0 9 5 15 11 13 6 -2 11 -8 11 -13z m598 -10 c-31 -33 -119
-65 -178 -65 l-47 1 34 29 c44 37 102 58 165 59 l49 1 -23 -25z m355 -225 c-8
-25 -12 -34 -9 -20 4 14 9 75 13 135 l6 110 3 -90 c2 -60 -3 -105 -13 -135z
m-586 174 c-14 -18 -24 -11 -15 11 3 9 11 13 16 10 8 -5 7 -11 -1 -21z m509
-4 c42 -26 65 -78 56 -127 l-7 -36 -12 37 c-22 64 -60 95 -130 106 l-40 7 35
16 c46 21 59 21 98 -3z m-1389 -42 c44 -77 150 -206 217 -263 32 -27 95 -74
139 -104 96 -64 108 -74 40 -36 -125 70 -281 210 -352 315 -42 62 -86 140 -80
140 3 0 19 -24 36 -52z m140 -8 c64 -12 136 2 186 36 28 18 33 20 26 6 -16
-30 -65 -70 -103 -86 -72 -30 -139 -17 -196 37 -56 53 -59 70 -9 41 24 -13 67
-28 96 -34z m640 -6 c-31 -38 -166 -82 -198 -65 -10 6 -6 13 17 30 44 31 100
49 151 50 38 1 42 -1 30 -15z m154 -20 c41 -21 114 -91 134 -127 14 -28 14
-29 -9 -22 -46 13 -113 61 -145 103 -48 64 -42 77 20 46z m-95 -86 c-3 -60
-11 -95 -27 -127 -20 -39 -25 -42 -33 -27 -16 28 -4 136 20 189 32 73 45 61
40 -35z m352 73 c0 -17 -18 -21 -24 -6 -3 9 0 15 9 15 8 0 15 -4 15 -9z m251
-158 c-12 -20 -14 -14 -5 12 4 9 9 14 11 11 3 -2 0 -13 -6 -23z m-1285 -88 c9
-48 -17 -112 -62 -156 l-36 -34 18 35 c15 28 19 57 19 143 l0 108 27 -30 c15
-17 30 -46 34 -66z m474 64 c0 -5 -7 -9 -15 -9 -15 0 -20 12 -9 23 8 8 24 -1
24 -14z m576 -46 c13 -52 -34 -156 -88 -194 l-30 -22 35 52 c42 60 51 99 45
178 -5 56 -5 56 14 33 10 -12 21 -34 24 -47z m-228 -5 c-6 -18 -28 -21 -28 -4
0 9 7 16 16 16 9 0 14 -5 12 -12z m415 -20 c-10 -18 -48 -62 -84 -99 -109
-110 -234 -159 -407 -159 -124 0 -298 43 -388 94 -16 10 -20 14 -9 10 260 -96
388 -112 559 -68 122 31 240 109 302 200 42 60 55 71 27 22z m-747 -66 c-30
-58 -77 -75 -146 -51 l-33 12 65 16 c35 9 77 26 92 39 36 28 42 23 22 -16z
m778 -83 c21 -16 26 -29 25 -62 0 -37 -2 -40 -12 -23 -26 43 -57 66 -98 72
-38 6 -40 8 -24 21 28 19 79 16 109 -8z m-653 -161 c6 -16 9 -31 5 -35 -3 -3
-6 -1 -6 5 0 6 -14 27 -31 47 -31 35 -31 36 -6 24 14 -6 31 -25 38 -41z"/>
<path d="M6438 6884 c-46 -43 -108 -103 -139 -133 -70 -70 -146 -116 -227
-136 -110 -28 -200 0 -286 90 -52 54 -54 55 -60 31 -9 -35 19 -93 70 -147 77
-82 65 -77 180 -76 100 0 107 2 141 29 20 15 39 28 44 28 4 0 -14 -39 -41 -88
-42 -75 -56 -92 -104 -121 -138 -83 -238 -80 -341 11 -20 17 -38 28 -42 24 -3
-3 10 -30 30 -60 71 -106 192 -145 290 -92 l48 26 -33 -46 c-47 -67 -176 -194
-252 -250 -63 -45 -70 -48 -141 -52 -86 -4 -146 17 -189 69 -14 16 -28 29 -32
29 -10 0 3 -56 22 -96 19 -40 43 -56 99 -64 l40 -6 -60 -23 c-33 -12 -85 -29
-115 -38 -59 -16 -263 -29 -303 -19 -14 3 -47 26 -75 51 -67 61 -86 110 -80
210 3 41 2 75 -2 75 -12 0 -49 -45 -60 -74 -19 -52 14 -153 68 -203 l27 -25
-37 15 c-96 40 -196 136 -246 237 -26 51 -29 64 -21 104 5 25 15 59 24 76 20
38 82 70 137 70 l43 1 -30 24 c-62 51 -147 41 -190 -23 -24 -35 -25 -36 -25
-11 0 146 93 321 187 353 85 29 149 14 196 -45 25 -31 27 -32 27 -11 0 39 -37
98 -71 115 l-32 15 48 8 c108 16 232 -32 283 -108 24 -37 27 -51 28 -137 2
-66 -2 -105 -12 -123 -8 -16 -16 -28 -17 -28 -1 0 -2 42 -2 92 0 94 -14 143
-60 202 -21 28 -27 16 -33 -66 -3 -55 1 -87 15 -130 17 -49 18 -56 4 -46 -45
33 -65 57 -87 101 -33 64 -64 78 -112 52 -46 -25 -51 -58 -9 -63 23 -3 27 0
27 22 0 31 29 36 52 9 14 -18 58 -91 58 -98 0 -2 -15 1 -32 6 -18 5 -62 9 -97
9 l-65 0 29 -30 c47 -49 125 -82 201 -86 37 -1 69 -5 72 -8 5 -6 -22 -10 -45
-7 -7 1 -39 -3 -73 -8 -49 -8 -70 -18 -101 -46 -49 -44 -69 -45 -69 -5 0 37
-27 52 -45 26 -18 -24 8 -74 42 -82 27 -7 93 18 93 36 0 13 38 36 75 45 28 6
28 5 -16 -34 -44 -38 -99 -124 -88 -135 3 -3 26 1 52 10 57 19 129 81 164 142
15 25 29 40 31 34 2 -7 -11 -34 -28 -60 -30 -44 -31 -52 -27 -113 4 -63 -4
-99 -22 -99 -5 0 -11 9 -14 20 -6 23 -29 26 -46 6 -17 -21 -3 -43 31 -50 24
-5 37 -1 55 16 20 19 23 31 23 102 0 101 15 131 23 47 5 -59 52 -166 73 -166
14 0 26 77 20 135 -3 32 -17 78 -35 112 -16 32 -25 58 -21 58 5 0 16 -13 24
-29 22 -42 68 -77 128 -96 29 -10 59 -22 66 -28 21 -16 14 -37 -13 -37 -14 0
-28 -7 -31 -15 -6 -15 12 -45 27 -45 11 0 59 49 59 60 0 31 -27 61 -69 76 -92
32 -101 36 -112 50 -10 12 -6 12 22 0 67 -28 169 -32 169 -7 0 17 -93 73 -140
84 -57 13 -66 27 -17 27 53 0 106 20 123 45 16 25 54 35 54 14 0 -6 10 -9 23
-7 14 2 22 10 22 23 0 16 -8 21 -37 23 -30 3 -44 -3 -76 -32 -29 -27 -52 -38
-88 -43 -27 -3 -64 -14 -83 -24 -19 -10 -39 -15 -44 -12 -6 3 12 14 39 24 27
10 67 33 88 51 40 33 96 112 96 135 0 31 -121 -25 -172 -80 -16 -16 -28 -24
-28 -18 0 7 16 27 36 45 31 28 37 42 42 85 2 28 9 54 13 57 5 3 9 0 9 -5 0 -6
11 -11 25 -11 20 0 25 5 25 24 0 13 -7 27 -16 30 -19 7 -74 -20 -75 -37 -6
-69 -10 -89 -21 -109 -12 -21 -13 -19 -19 32 -9 86 -45 139 -127 188 -30 18
-31 20 -12 25 31 8 52 68 44 128 -8 58 -24 76 -24 26 0 -45 -37 -98 -85 -120
-21 -10 -68 -21 -104 -23 -111 -8 -202 -46 -276 -117 -46 -44 -49 -42 -29 21
8 26 -18 112 -46 150 -29 40 -113 102 -138 102 -9 0 0 -16 23 -41 21 -23 49
-67 64 -98 23 -50 26 -68 25 -161 0 -79 -6 -122 -22 -174 -53 -166 -15 -350
105 -506 l50 -65 -46 3 c-40 3 -51 0 -74 -24 -29 -29 -35 -71 -17 -118 12 -33
30 -33 30 0 0 15 12 38 31 56 29 29 33 30 97 25 46 -3 81 -13 112 -30 25 -14
74 -33 109 -42 67 -17 233 -23 293 -10 32 7 33 7 16 -12 -18 -19 -25 -92 -12
-106 4 -4 17 15 29 41 22 47 58 77 135 113 209 98 303 154 427 255 l32 26 -10
-36 c-19 -67 21 -156 91 -202 22 -15 42 -25 45 -23 2 3 -11 33 -28 69 -25 51
-32 77 -32 125 0 75 29 175 71 240 17 28 59 102 94 165 34 63 63 116 64 117 1
1 0 -27 -2 -62 -5 -82 22 -143 81 -184 41 -27 137 -65 137 -54 0 3 -20 23 -45
45 -54 47 -72 80 -85 149 -11 57 0 148 28 238 14 47 27 62 92 117 41 35 115
87 164 116 l89 53 -39 3 c-21 2 -47 10 -56 19 -16 14 -24 9 -100 -63z m131 26
c0 -3 -36 -27 -81 -55 -103 -64 -221 -179 -284 -277 -72 -111 -78 -120 -43
-53 56 105 114 177 237 297 115 112 122 116 146 105 14 -7 26 -14 25 -17z
m-1964 -110 c38 -54 45 -131 19 -198 l-19 -47 -6 95 c-6 95 -18 133 -64 205
l-20 30 31 -22 c17 -12 43 -40 59 -63z m555 30 c0 -40 -31 -70 -72 -70 -30 1
-31 2 -13 12 32 17 75 61 75 75 0 7 2 13 5 13 3 0 5 -13 5 -30z m708 -207 c48
-24 70 -28 138 -28 69 0 89 4 142 31 35 17 61 28 59 25 -1 -3 -9 -18 -17 -34
-7 -15 -25 -30 -39 -34 -13 -3 -34 -18 -47 -32 -16 -19 -30 -24 -58 -23 -58 4
-79 3 -118 -4 -35 -6 -41 -3 -93 47 -54 53 -95 115 -95 144 0 9 16 -2 36 -25
20 -22 61 -52 92 -67z m-965 76 c13 -6 31 -24 41 -40 l17 -29 -37 25 c-25 17
-51 25 -83 26 l-46 1 30 13 c37 17 48 18 78 4z m485 -71 c-6 -18 -28 -21 -28
-4 0 9 7 16 16 16 9 0 14 -5 12 -12z m-222 -62 c28 -62 39 -137 26 -181 l-9
-30 -25 50 c-15 28 -29 72 -33 98 -7 44 0 117 11 117 3 0 16 -24 30 -54z
m1086 -13 c-25 -123 0 -238 66 -301 l27 -25 -41 21 c-115 58 -152 177 -93 295
18 35 47 77 54 77 1 0 -5 -30 -13 -67z m-1320 -48 c0 -5 -5 -11 -11 -13 -6 -2
-11 4 -11 13 0 9 5 15 11 13 6 -2 11 -8 11 -13z m487 -7 c-36 -68 -105 -129
-163 -144 l-28 -7 15 30 c28 53 137 140 180 143 4 0 2 -10 -4 -22z m681 -98
c-11 -22 -23 -40 -25 -40 -3 0 4 18 15 40 11 22 23 40 25 40 3 0 -4 -18 -15
-40z m-1533 -12 c-3 -7 -5 -2 -5 12 0 14 2 19 5 13 2 -7 2 -19 0 -25z m473 13
c27 -10 64 -31 81 -45 l31 -26 -49 0 c-64 0 -131 23 -174 60 l-34 29 47 1 c26
0 70 -9 98 -19z m502 4 c0 -5 -5 -11 -11 -13 -6 -2 -11 4 -11 13 0 9 5 15 11
13 6 -2 11 -8 11 -13z m-968 -240 c6 -29 6 -29 -5 -5 -6 14 -13 68 -14 120
l-3 95 7 -90 c5 -49 11 -103 15 -120z m602 178 c-7 -7 -26 7 -26 19 0 6 6 6
15 -2 9 -7 13 -15 11 -17z m-414 -11 c5 -5 -8 -11 -30 -14 -57 -8 -92 -35
-118 -93 l-24 -50 0 50 c0 64 27 111 72 123 33 9 84 0 100 -16z m1094 -40 c52
2 84 10 122 30 57 30 59 20 8 -35 -76 -82 -190 -73 -281 22 l-40 42 60 -31
c54 -29 67 -31 131 -28z m179 -9 c-85 -148 -235 -296 -390 -384 -56 -32 -33
-12 55 46 99 67 233 201 300 303 61 91 76 107 35 35z m-650 -7 c28 -12 56 -30
64 -39 12 -15 9 -17 -36 -17 -50 0 -138 35 -163 65 -21 25 76 19 135 -9z
m-244 -30 c-39 -63 -159 -152 -178 -132 -8 7 31 67 65 99 29 28 123 79 131 72
2 -2 -6 -19 -18 -39z m-276 -6 c-5 -8 -11 -8 -17 -2 -6 6 -7 16 -3 22 5 8 11
8 17 2 6 -6 7 -16 3 -22z m371 -23 c34 -63 41 -224 8 -196 -36 30 -67 182 -48
234 7 18 11 14 40 -38z m-636 -122 c0 -5 -5 -3 -10 5 -5 8 -10 20 -10 25 0 6
5 3 10 -5 5 -8 10 -19 10 -25z m1338 -27 c-14 -61 -4 -156 21 -206 l22 -43
-26 17 c-60 39 -94 149 -64 207 10 19 49 67 55 67 1 0 -3 -19 -8 -42z m-504 1
c-3 -5 -10 -7 -15 -3 -5 3 -7 10 -3 15 3 5 10 7 15 3 5 -3 7 -10 3 -15z m-815
-19 c11 -24 11 -24 -3 -6 -9 11 -16 24 -16 30 0 12 5 7 19 -24z m247 -42 c0
-79 15 -120 63 -172 20 -22 22 -26 6 -18 -81 42 -132 179 -89 240 8 12 16 22
17 22 2 0 3 -33 3 -72z m222 11 c-2 -6 -8 -10 -13 -10 -5 0 -11 4 -13 10 -2 6
4 11 13 11 9 0 15 -5 13 -11z m-383 -88 c56 -62 145 -117 239 -148 144 -47
361 -32 520 37 27 11 51 19 53 16 2 -2 -31 -18 -74 -34 -210 -81 -421 -83
-582 -5 -61 29 -187 144 -214 195 -17 32 -17 32 0 8 10 -14 36 -45 58 -69z
m819 -21 c47 -1 49 -2 32 -15 -31 -23 -86 -30 -115 -14 -24 14 -71 73 -71 90
0 4 23 -8 51 -27 41 -28 61 -34 103 -34z m76 -35 c0 -6 -56 -35 -67 -35 -4 1
8 9 27 20 39 22 40 22 40 15z m-881 -19 c24 -13 24 -14 -19 -21 -48 -8 -100
-51 -100 -82 0 -15 -2 -16 -10 -3 -18 27 -10 61 19 91 32 32 70 37 110 15z
m592 -133 c-11 -10 -27 -31 -36 -48 -14 -27 -15 -28 -15 -7 0 24 41 72 61 72
6 0 2 -8 -10 -17z"/>
<path d="M13055 6891 c-3 -6 4 -15 15 -21 19 -10 20 -20 20 -181 0 -132 3
-170 13 -167 7 3 13 29 15 71 3 62 5 67 25 67 16 0 29 -13 47 -46 13 -26 33
-57 43 -70 21 -27 57 -32 57 -9 0 8 -8 15 -17 15 -12 0 -30 23 -53 65 l-35 64
30 33 c17 18 39 43 49 56 19 22 19 22 0 22 -11 -1 -36 -23 -57 -50 -49 -64
-81 -68 -91 -12 -3 20 -6 65 -6 98 0 47 -4 63 -16 68 -22 8 -32 8 -39 -3z"/>
<path d="M13707 6893 c-12 -11 -8 -21 13 -26 19 -5 20 -14 20 -170 0 -160 1
-166 21 -172 30 -10 47 10 20 24 -20 11 -21 19 -21 175 0 140 -2 165 -16 170
-20 8 -29 8 -37 -1z"/>
<path d="M10350 6880 c0 -7 9 -14 20 -17 19 -5 20 -14 20 -174 0 -106 4 -169
10 -169 6 0 10 30 10 70 0 115 36 170 110 170 54 0 60 -12 60 -116 0 -112 4
-124 41 -124 33 0 39 15 10 23 -17 4 -19 16 -23 107 -3 94 -5 103 -28 122 -35
28 -101 20 -140 -17 l-29 -28 -3 79 c-3 78 -3 79 -30 82 -17 2 -28 -2 -28 -8z"/>
<path d="M12620 6825 c0 -28 -4 -35 -20 -35 -11 0 -20 -5 -20 -11 0 -6 9 -13
20 -16 18 -5 20 -14 20 -100 0 -86 2 -96 25 -118 13 -14 36 -25 50 -25 34 0
32 13 -5 27 -38 14 -50 46 -50 139 l0 74 35 0 c24 0 35 5 35 15 0 10 -11 15
-35 15 -33 0 -35 2 -35 35 0 19 -4 35 -10 35 -5 0 -10 -16 -10 -35z"/>
<path d="M12847 6785 c-51 -18 -63 -29 -83 -81 -22 -58 -8 -110 41 -153 66
-58 172 -35 209 44 53 112 -51 231 -167 190z m119 -49 c28 -28 34 -41 34 -78
0 -50 -18 -82 -60 -103 -37 -19 -63 -19 -100 0 -76 40 -78 158 -2 199 47 26
90 20 128 -18z"/>
<path d="M13507 6781 c-32 -16 -39 -17 -44 -5 -3 8 -16 14 -29 14 -27 0 -32
-15 -9 -24 13 -4 15 -34 15 -176 0 -144 2 -170 15 -170 12 0 15 15 15 73 0 39
4 67 8 61 12 -19 49 -34 84 -34 66 0 108 54 108 140 0 65 -22 108 -65 126 -44
18 -53 18 -98 -5z m108 -35 c47 -47 41 -144 -12 -186 -36 -28 -69 -25 -104 9
-24 25 -29 37 -29 81 0 80 29 119 88 120 22 0 41 -8 57 -24z"/>
<path d="M10162 6770 c-18 -11 -41 -34 -52 -52 -55 -90 13 -208 120 -208 39 0
104 35 95 51 -5 6 -15 5 -31 -5 -27 -18 -96 -21 -125 -6 -25 14 -49 62 -49
100 0 65 43 109 107 110 39 0 73 -19 73 -41 0 -5 5 -9 10 -9 6 0 10 11 10 26
0 19 -8 28 -35 40 -47 19 -84 18 -123 -6z"/>
<path d="M11024 6781 c-32 -14 -72 -68 -80 -106 -19 -101 81 -188 180 -155 35
11 63 36 53 46 -3 3 -19 -2 -36 -10 -51 -27 -98 -21 -137 18 -73 73 -26 186
77 188 42 0 69 -15 69 -39 0 -16 22 -13 27 4 2 5 -5 20 -15 33 -20 25 -100 37
-138 21z"/>
<path d="M11282 6770 c-61 -37 -80 -130 -39 -191 67 -101 215 -79 246 37 33
122 -99 220 -207 154z m150 -37 c33 -32 43 -72 28 -118 -15 -44 -54 -75 -96
-75 -72 0 -114 43 -114 117 0 97 110 143 182 76z"/>
<path d="M11515 6780 c-3 -6 0 -13 9 -16 8 -3 34 -59 57 -125 24 -69 47 -119
55 -119 12 0 32 45 68 158 10 28 21 52 25 52 4 0 24 -47 45 -105 21 -58 44
-105 51 -105 7 0 30 52 54 119 25 71 49 122 58 126 11 4 13 9 6 16 -22 22 -43
-7 -79 -111 -21 -60 -39 -108 -40 -107 -2 1 -20 52 -42 112 -22 63 -44 110
-52 110 -7 0 -30 -48 -53 -114 l-40 -113 -39 108 c-41 115 -63 146 -83 114z"/>
<path d="M11960 6775 c0 -8 7 -15 15 -15 12 0 15 -28 17 -172 2 -126 6 -172
16 -176 9 -3 12 16 12 73 l0 76 21 -20 c54 -50 137 -30 169 41 11 24 20 57 20
73 0 40 -33 111 -58 124 -34 18 -97 13 -126 -10 -20 -16 -26 -17 -26 -6 0 15
-20 27 -46 27 -8 0 -14 -7 -14 -15z m184 -15 c53 -20 73 -117 36 -177 -50 -83
-160 -35 -160 70 0 85 56 133 124 107z"/>
<path d="M12334 6771 c-35 -21 -64 -75 -64 -118 0 -70 67 -136 139 -136 111 0
176 125 114 220 -35 53 -130 70 -189 34z m126 -16 c115 -59 47 -240 -78 -209
-64 16 -103 106 -71 165 14 26 68 59 97 59 13 0 36 -7 52 -15z"/>
<path d="M8686 6772 c-3 -5 3 -15 13 -24 10 -8 35 -65 56 -127 21 -62 44 -111
51 -111 7 0 29 49 51 110 21 60 40 110 43 110 3 0 22 -50 43 -110 23 -65 44
-110 52 -110 8 0 29 46 52 117 60 178 81 178 143 4 23 -67 46 -121 51 -121 12
0 31 42 64 138 16 45 32 79 36 75 4 -5 24 -54 44 -111 22 -59 42 -101 49 -99
6 2 30 57 54 122 23 66 48 122 54 127 7 4 9 10 5 15 -18 17 -42 -19 -75 -115
-20 -55 -38 -99 -41 -96 -3 3 -22 51 -42 107 -20 56 -43 103 -50 105 -10 2
-27 -33 -53 -108 -21 -61 -40 -109 -43 -107 -2 2 -20 51 -41 108 l-37 104 -42
3 c-49 4 -54 -3 -98 -136 -15 -46 -29 -81 -32 -78 -3 3 -22 52 -42 108 -24 69
-41 103 -51 103 -10 0 -27 -34 -50 -102 -19 -56 -38 -104 -41 -108 -4 -3 -17
24 -30 62 -35 107 -57 153 -73 153 -8 0 -17 -4 -20 -8z"/>
<path d="M9560 6771 c0 -5 6 -14 14 -18 8 -4 33 -59 55 -121 22 -63 42 -117
45 -120 12 -11 25 14 64 122 l39 108 40 -113 c23 -67 46 -114 53 -114 8 0 31
49 55 120 24 65 48 121 54 123 20 7 11 23 -11 20 -18 -2 -28 -22 -59 -113 -42
-125 -35 -128 -89 30 -38 113 -49 110 -95 -25 -21 -60 -41 -108 -44 -104 -3 3
-22 51 -41 107 -29 85 -39 103 -57 105 -13 2 -23 -1 -23 -7z"/>
<path d="M10650 6772 c0 -6 6 -12 14 -15 12 -5 106 -213 106 -236 0 -23 -35
-81 -51 -86 -10 -4 -27 -2 -37 4 -23 13 -36 3 -21 -16 15 -18 69 -17 90 3 9 8
45 84 79 167 35 84 69 157 76 163 20 16 17 26 -7 22 -20 -3 -31 -25 -100 -198
-10 -23 -14 -16 -58 85 -37 88 -51 111 -69 113 -12 2 -22 -1 -22 -6z"/>
<path d="M13330 6540 c0 -11 7 -20 15 -20 8 0 15 9 15 20 0 11 -7 20 -15 20
-8 0 -15 -9 -15 -20z"/>
<path d="M10010 6530 c0 -11 7 -20 15 -20 8 0 15 9 15 20 0 11 -7 20 -15 20
-8 0 -15 -9 -15 -20z"/>
</g>
</svg>
